<svg width="593" height="619" viewBox="0 0 593 619" fill="none" xmlns="http://www.w3.org/2000/svg">
<mask id="mask0_161_4" style="mask-type:luminance" maskUnits="userSpaceOnUse" x="0" y="0" width="593" height="619">
<path d="M0 6.10352e-05H593V619H0V6.10352e-05Z" fill="white"/>
</mask>
<g mask="url(#mask0_161_4)">
<mask id="mask1_161_4" style="mask-type:luminance" maskUnits="userSpaceOnUse" x="216" y="149" width="195" height="165">
<path d="M216.977 149.948H410.273V313.242H216.977V149.948Z" fill="white"/>
</mask>
<g mask="url(#mask1_161_4)">
<g opacity="0.199997">
<path d="M314.209 313.235C284.409 313.234 254.611 313.235 224.812 313.233C223.299 313.233 221.784 313.273 220.277 313.07C217.319 312.671 216.183 310.588 217.554 307.826C219.463 303.983 221.973 300.528 224.265 296.936C254.635 249.355 285.024 201.789 315.416 154.224C316.099 153.155 316.824 152.107 317.611 151.122C318.238 150.335 319.06 149.712 320.112 150.033C321.165 150.353 321.556 151.296 321.603 152.354C321.674 153.963 321.675 155.564 321.187 157.141C320.885 158.118 320.983 159.186 320.879 160.209C320.338 165.568 319.96 170.946 319.397 176.303C318.872 181.289 318.427 186.281 317.945 191.27C317.469 196.179 316.917 201.08 316.543 206C315.635 217.914 314.345 229.792 313.222 241.684C312.396 250.431 315.807 257.245 321.76 263.013C325.596 266.729 330.302 268.902 334.908 271.255C350.646 279.297 366.389 287.327 382.132 295.354C390.29 299.513 398.457 303.65 406.614 307.81C407.436 308.228 408.244 308.688 409.017 309.196C409.834 309.73 410.442 310.468 410.232 311.564C410.025 312.649 409.147 312.919 408.258 313.067C406.875 313.298 405.477 313.233 404.083 313.233C374.125 313.236 344.167 313.236 314.209 313.235Z" fill="#2B9651"/>
</g>
</g>
<mask id="mask2_161_4" style="mask-type:luminance" maskUnits="userSpaceOnUse" x="112" y="146" width="171" height="162">
<path d="M112.273 146.96H282.092V307.973H112.273V146.96Z" fill="white"/>
</mask>
<g mask="url(#mask2_161_4)">
<g opacity="0.199997">
<path d="M170.413 304.503C170.95 299.673 171.485 294.842 172.025 290.013C173.268 278.907 174.513 267.803 175.759 256.698C177.062 245.098 178.399 233.5 179.665 221.895C180.864 210.911 182.308 199.955 183.23 188.94C183.505 185.656 182.401 183.098 179.473 181.53C175.501 179.403 171.366 177.657 167.294 175.76C157.949 171.408 148.584 167.101 139.207 162.824C136.807 161.73 134.486 160.458 132.072 159.413C127.067 157.246 122.239 154.668 117.227 152.528C116.022 152.013 114.795 151.572 113.651 150.91C112.637 150.323 112.03 149.253 112.367 148.368C112.786 147.267 113.7 147.029 114.731 147.203C115.773 147.378 116.76 146.958 117.795 146.959C170.069 146.979 222.343 146.972 274.616 146.997C276.42 146.998 278.23 147.241 280.027 147.473C281.54 147.669 282.438 149.431 281.966 151.14C281.481 152.896 280.465 154.373 279.371 155.726C277.551 157.979 276.115 160.503 274.464 162.873C265.764 175.366 257.145 187.919 248.479 200.436C241.511 210.499 234.528 220.549 227.529 230.585C223.747 236.01 219.836 241.339 216.128 246.816C212.145 252.7 208.033 258.483 204.005 264.331C197.839 273.286 191.686 282.251 185.513 291.202C182.312 295.846 179.082 300.468 175.869 305.103C175.307 305.916 174.72 306.709 173.951 307.312C173.335 307.795 172.609 308.207 171.844 307.818C171.018 307.398 170.507 306.651 170.482 305.633C170.473 305.259 170.48 304.885 170.48 304.511C170.458 304.509 170.435 304.505 170.413 304.503Z" fill="#2B9651"/>
</g>
</g>
<mask id="mask3_161_4" style="mask-type:luminance" maskUnits="userSpaceOnUse" x="356" y="146" width="152" height="163">
<path d="M356.051 146.334H507.373V308.597H356.051V146.334Z" fill="white"/>
</mask>
<g mask="url(#mask3_161_4)">
<g opacity="0.199997">
<path d="M432.735 146.335C455.56 146.336 478.384 146.335 501.21 146.34C502.563 146.341 503.916 146.295 505.263 146.541C506.236 146.72 507.064 147.137 507.317 148.177C507.584 149.274 506.858 149.972 506.095 150.534C504.586 151.646 502.848 152.301 501.181 153.083C483.823 161.224 466.453 169.337 449.092 177.469C445.099 179.339 441.406 181.647 438.623 185.303C436.205 188.476 435.58 192.265 435.016 196.105C434.138 202.07 435.024 207.966 435.602 213.871C436.655 224.621 437.757 235.364 438.839 246.111C440.163 259.255 441.492 272.398 442.811 285.541C443.462 292.031 444.1 298.522 444.727 305.014C444.782 305.587 444.743 306.176 444.69 306.752C444.613 307.58 444.332 308.342 443.465 308.539C442.639 308.727 441.951 308.457 441.369 307.711C440.075 306.055 439.147 304.169 438.14 302.336C431.321 289.944 424.521 277.542 417.72 265.14C411.274 253.385 404.839 241.625 398.388 229.873C391.681 217.653 384.953 205.446 378.249 193.223C371.486 180.894 364.735 168.557 357.99 156.217C357.28 154.917 356.618 153.586 356.246 152.125C355.565 149.455 356.704 147.398 359.268 146.718C360.511 146.387 361.789 146.352 363.064 146.351C368.402 146.342 373.74 146.335 379.079 146.335C396.964 146.333 414.849 146.334 432.735 146.335Z" fill="#2B9651"/>
</g>
</g>
</g>
<mask id="mask4_161_4" style="mask-type:luminance" maskUnits="userSpaceOnUse" x="0" y="0" width="593" height="619">
<path d="M0 6.10352e-05H593V619H0V6.10352e-05Z" fill="white"/>
</mask>
<g mask="url(#mask4_161_4)">
<path d="M319.528 420.456C317.1 420.456 314.673 420.482 312.246 420.44C311.529 420.428 311.288 420.619 311.293 421.408C311.329 426.017 311.327 430.627 311.295 435.237C311.29 435.99 311.484 436.232 312.226 436.227C317.079 436.195 321.933 436.201 326.787 436.222C327.442 436.227 327.688 436.051 327.684 435.322C327.656 430.671 327.651 426.019 327.687 421.368C327.693 420.531 327.358 420.434 326.689 420.443C324.302 420.477 321.914 420.456 319.528 420.456ZM330.635 466.342C330.552 466.092 330.324 466.141 330.147 466.078C328.395 465.452 327.666 464.404 327.664 462.458C327.657 456.387 327.63 450.316 327.688 444.246C327.699 443.068 327.445 442.71 326.263 442.716C316.184 442.769 306.105 442.748 296.027 442.744C295.47 442.744 294.909 442.737 294.357 442.665C292.589 442.437 291.294 441.016 291.344 439.402C291.392 437.812 292.805 436.424 294.582 436.385C297.29 436.324 300 436.31 302.707 436.384C303.724 436.413 303.953 436.084 303.942 435.068C303.893 430.204 303.917 425.338 303.921 420.474C303.923 416.696 306.193 414.222 309.84 414.185C315.377 414.128 320.915 414.148 326.452 414.181C327.327 414.186 327.709 414.04 327.687 412.983C327.617 409.531 327.639 406.08 327.677 402.628C327.686 401.791 327.499 401.477 326.628 401.484C321.768 401.528 316.908 401.524 312.047 401.485C311.328 401.479 311.01 401.779 310.695 402.387C307.815 407.934 304.271 412.969 300.019 417.466C298.733 418.828 297.282 419.161 295.556 418.703C293.612 418.188 292.35 415.341 294.236 413.406C300.669 406.805 305.276 398.981 307.829 389.907C308.289 388.279 309.348 387.499 310.818 387.282C312.371 387.052 313.738 387.525 314.689 388.936C315.184 389.671 315.226 390.493 314.998 391.318C314.67 392.506 314.292 393.678 313.93 394.871C314.36 395.127 314.802 395.002 315.218 395.002C328.245 395.01 341.271 395.011 354.298 395.002C355.188 395.002 356.049 395.088 356.845 395.522C359.08 396.742 359.172 399.393 357.041 400.803C356.237 401.334 355.353 401.469 354.418 401.467C348.323 401.457 342.227 401.492 336.134 401.434C335.108 401.425 334.901 401.73 334.919 402.74C334.984 406.149 334.973 409.56 334.924 412.968C334.912 413.843 335.149 414.076 335.982 414.069C341.439 414.031 346.897 414.048 352.355 414.056C352.871 414.056 353.393 414.075 353.9 414.166C355.586 414.47 356.759 415.809 356.721 417.337C356.682 418.868 355.309 420.276 353.645 420.419C352.813 420.49 351.972 420.454 351.135 420.455C346.116 420.457 341.097 420.475 336.078 420.437C335.246 420.432 334.906 420.557 334.918 421.56C334.978 426.092 334.97 430.625 334.922 435.158C334.913 436.069 335.202 436.232 336.001 436.229C343.212 436.197 350.423 436.206 357.633 436.218C358.306 436.219 358.992 436.264 359.647 436.411C361.187 436.755 362.222 438.085 362.191 439.569C362.16 441.067 360.97 442.401 359.393 442.638C358.766 442.733 358.122 442.742 357.486 442.743C350.395 442.749 343.304 442.766 336.213 442.725C335.257 442.718 335.017 443.014 335.024 443.986C335.066 449.808 334.941 455.631 335.093 461.449C335.159 463.978 334.367 465.576 332.07 466.342H330.635Z" fill="#2B9651"/>
<path d="M66.7146 396.723C67.6201 394.656 69.1831 394.091 71.301 394.107C81.8983 394.189 92.4966 394.14 103.095 394.148C105.999 394.15 107.603 396.021 107.125 398.775C107.008 399.452 106.646 399.998 106.318 400.561C98.3512 414.197 92.1779 428.638 88.3366 444.128C87.45 447.701 86.7128 451.31 86.0912 454.943C85.6728 457.386 83.9923 458.742 81.8087 458.342C79.7755 457.968 78.5422 455.987 78.9596 453.636C79.5822 450.131 80.3094 446.649 81.191 443.201C84.9456 428.524 90.591 414.7 98.3063 401.808C98.4498 401.569 98.5883 401.326 98.8234 400.923C98.2775 400.896 97.866 400.859 97.4546 400.859C88.6893 400.854 79.9229 400.815 71.1575 400.886C69.0785 400.902 67.5374 400.307 66.7146 398.219V396.723Z" fill="#2B9651"/>
<path d="M457.337 466.342C457.256 466.028 456.96 466.082 456.759 465.989C455.263 465.3 454.504 464.183 454.511 462.404C454.546 453.551 454.527 444.697 454.527 435.844C454.527 425.203 454.606 414.561 454.484 403.923C454.443 400.275 457.941 399.273 459.979 400.32C461.205 400.949 461.945 401.911 461.93 403.452C461.893 407.526 461.918 411.6 461.918 415.673C461.919 430.886 461.869 446.099 461.967 461.311C461.984 463.831 461.364 465.537 459.011 466.342H457.337Z" fill="#2B9651"/>
<path d="M300.445 306.635C270.646 306.635 240.847 306.635 211.049 306.633C209.535 306.633 208.02 306.674 206.514 306.471C203.555 306.072 202.42 303.989 203.791 301.227C205.699 297.384 208.209 293.928 210.502 290.337C240.871 242.756 271.26 195.19 301.653 147.626C302.335 146.557 303.06 145.508 303.847 144.522C304.475 143.737 305.297 143.114 306.349 143.433C307.402 143.754 307.792 144.697 307.839 145.754C307.911 147.364 307.912 148.964 307.424 150.542C307.122 151.518 307.219 152.586 307.116 153.61C306.574 158.97 306.196 164.347 305.633 169.703C305.109 174.689 304.663 179.682 304.181 184.671C303.706 189.581 303.154 194.481 302.779 199.401C301.872 211.316 300.582 223.192 299.458 235.085C298.632 243.832 302.043 250.645 307.996 256.414C311.833 260.13 316.539 262.302 321.145 264.656C336.883 272.698 352.624 280.728 368.369 288.755C376.525 292.913 384.693 297.052 392.852 301.21C393.673 301.629 394.479 302.09 395.253 302.597C396.07 303.131 396.678 303.868 396.469 304.963C396.262 306.05 395.384 306.319 394.494 306.468C393.112 306.699 391.713 306.634 390.319 306.634C360.361 306.636 330.403 306.636 300.445 306.635Z" fill="#2B9651"/>
<path d="M156.65 297.904C157.187 293.074 157.722 288.243 158.262 283.413C159.505 272.309 160.749 261.203 161.995 250.098C163.298 238.498 164.635 226.901 165.901 215.296C167.101 204.312 168.544 193.356 169.467 182.341C169.742 179.057 168.638 176.499 165.71 174.931C161.737 172.803 157.602 171.057 153.531 169.16C144.186 164.809 134.821 160.503 125.444 156.226C123.044 155.132 120.723 153.858 118.309 152.813C113.303 150.647 108.476 148.068 103.464 145.929C102.259 145.413 101.031 144.972 99.8876 144.31C98.8735 143.723 98.2669 142.653 98.6036 141.769C99.023 140.667 99.9365 140.43 100.967 140.603C102.009 140.779 102.997 140.36 104.032 140.36C156.305 140.379 208.579 140.372 260.853 140.397C262.657 140.398 264.467 140.642 266.263 140.874C267.775 141.07 268.675 142.831 268.203 144.54C267.717 146.296 266.701 147.774 265.608 149.127C263.788 151.38 262.351 153.904 260.7 156.273C252.001 168.766 243.382 181.319 234.715 193.837C227.748 203.899 220.765 213.949 213.766 223.987C209.983 229.411 206.072 234.739 202.364 240.217C198.382 246.1 194.269 251.883 190.242 257.731C184.076 266.686 177.922 275.652 171.75 284.602C168.548 289.246 165.319 293.869 162.106 298.505C161.544 299.316 160.956 300.109 160.187 300.712C159.572 301.196 158.845 301.608 158.08 301.219C157.254 300.799 156.743 300.051 156.719 299.034C156.71 298.66 156.717 298.285 156.717 297.911L156.65 297.904Z" fill="#2B9651"/>
<path d="M418.971 139.736C441.796 139.737 464.621 139.736 487.446 139.741C488.799 139.741 490.153 139.695 491.499 139.942C492.473 140.12 493.301 140.538 493.554 141.578C493.821 142.675 493.094 143.372 492.331 143.935C490.822 145.047 489.085 145.702 487.417 146.483C470.06 154.625 452.689 162.738 435.328 170.87C431.335 172.74 427.643 175.047 424.859 178.702C422.442 181.877 421.816 185.665 421.252 189.505C420.375 195.471 421.26 201.367 421.838 207.271C422.891 218.021 423.994 228.765 425.075 239.512C426.399 252.655 427.728 265.797 429.047 278.942C429.699 285.431 430.336 291.923 430.963 298.415C431.019 298.986 430.98 299.577 430.926 300.153C430.849 300.981 430.568 301.743 429.702 301.94C428.875 302.127 428.188 301.858 427.606 301.112C426.312 299.455 425.383 297.569 424.376 295.737C417.557 283.345 410.757 270.942 403.957 258.54C397.51 246.786 391.075 235.025 384.625 223.274C377.917 211.053 371.189 198.845 364.485 186.624C357.722 174.295 350.971 161.958 344.227 149.617C343.517 148.318 342.854 146.987 342.482 145.526C341.801 142.855 342.941 140.799 345.504 140.119C346.747 139.788 348.024 139.753 349.3 139.751C354.639 139.743 359.976 139.736 365.315 139.736C383.2 139.734 401.086 139.735 418.971 139.736Z" fill="#2B9651"/>
<path d="M277.767 422.161C278.615 422.162 279.436 422.094 280.201 421.683C281.436 421.02 282.056 419.889 281.931 418.553C281.813 417.309 280.986 416.343 279.708 415.92C279.051 415.702 278.38 415.694 277.701 415.694C270.012 415.697 262.322 415.708 254.633 415.684C253.537 415.682 252.252 416.017 251.625 415.259C251.087 414.607 251.354 413.303 251.257 412.194C251.168 411.199 251.498 410.958 252.434 410.963C258.968 411.007 265.502 410.988 272.036 410.985C272.594 410.985 273.156 411 273.707 410.934C275.306 410.744 276.551 409.451 276.607 407.971C276.668 406.399 275.53 405.001 273.892 404.703C273.307 404.596 272.703 404.575 272.109 404.574C266.252 404.565 260.396 404.581 254.539 404.556C253.481 404.552 252.073 405.05 251.466 404.323C250.943 403.7 251.366 402.261 251.256 401.198C251.149 400.164 251.551 399.983 252.451 399.988C260.18 400.023 267.91 400.008 275.639 400.006C276.156 400.006 276.678 400.018 277.191 399.962C278.826 399.782 280.171 398.44 280.222 396.971C280.278 395.38 279.07 393.991 277.345 393.719C276.798 393.632 276.235 393.623 275.679 393.622C268.109 393.617 260.539 393.619 252.969 393.618C251.275 393.618 251.264 393.618 251.278 391.848C251.287 390.596 251.389 389.325 250.33 388.399C248.989 387.228 247.495 386.944 245.881 387.664C244.377 388.335 243.761 389.584 243.875 391.26C243.888 391.466 243.876 391.676 243.876 391.884C243.876 393.618 243.876 393.618 242.271 393.618C234.582 393.619 226.892 393.616 219.203 393.624C218.568 393.624 217.92 393.629 217.3 393.755C215.867 394.048 214.758 395.294 214.67 396.603C214.576 398.012 215.405 399.163 216.892 399.767C217.549 400.034 218.22 400.003 218.893 400.004C226.144 400.009 233.395 400.004 240.646 400.012C241.674 400.013 243.044 399.662 243.64 400.208C244.338 400.846 243.759 402.32 243.887 403.419C243.994 404.346 243.693 404.597 242.787 404.592C236.134 404.549 229.48 404.565 222.827 404.574C222.232 404.575 221.626 404.6 221.046 404.72C219.608 405.014 218.448 406.325 218.354 407.675C218.264 408.997 219.199 410.215 220.682 410.779C221.342 411.029 222.017 410.981 222.688 410.982C228.624 410.991 234.561 410.973 240.497 410.999C241.596 411.005 243.061 410.794 243.691 411.553C244.233 412.202 243.893 413.401 243.893 414.491C243.893 415.464 243.687 415.727 242.735 415.721C234.21 415.68 225.684 415.699 217.158 415.691C216.436 415.691 215.713 415.694 215.043 415.985C213.871 416.492 213.01 417.29 212.938 418.729C212.873 420.027 213.581 421.143 214.839 421.755C215.583 422.116 216.367 422.16 217.169 422.16L277.767 422.161Z" fill="#2B9651"/>
<path d="M247.576 436.959H263.1C265.622 436.959 265.571 436.958 265.637 434.319C265.663 433.314 265.366 433.112 264.455 433.114C253.629 433.147 242.802 433.135 231.976 433.135C229.342 433.135 229.389 433.136 229.346 435.828C229.331 436.803 229.641 436.985 230.501 436.98C236.193 436.94 241.885 436.959 247.576 436.959ZM247.443 447.321H263.219C265.617 447.321 265.543 447.318 265.645 444.787C265.693 443.606 265.289 443.461 264.304 443.464C253.508 443.499 242.712 443.486 231.915 443.486C229.345 443.486 229.383 443.486 229.35 446.152C229.338 447.069 229.554 447.352 230.472 447.344C236.128 447.298 241.786 447.321 247.443 447.321ZM247.583 426.669C253.835 426.669 260.087 426.674 266.339 426.665C267.676 426.662 268.954 426.885 270.128 427.574C272.008 428.681 273.024 430.298 273.015 432.628C272.984 439.86 272.95 447.094 273.023 454.325C273.067 458.558 271.282 461.647 267.984 463.88C265.549 465.527 262.842 466.25 259.94 466.139C258.026 466.066 256.568 464.72 256.528 463.024C256.489 461.33 257.872 459.971 259.825 459.801C260.737 459.72 261.654 459.676 262.521 459.331C264.622 458.494 265.615 456.884 265.635 454.54C265.642 453.721 265.37 453.601 264.68 453.607C261.017 453.639 257.353 453.622 253.689 453.622C246.043 453.622 238.397 453.655 230.752 453.588C229.552 453.578 229.312 453.946 229.354 455.107C229.442 457.557 229.395 460.011 229.375 462.463C229.357 464.765 228.004 466.132 225.776 466.147C223.473 466.163 222.007 464.779 222.004 462.491C221.989 452.557 221.985 442.622 222.005 432.688C222.011 429.117 224.496 426.706 228.23 426.683C234.682 426.645 241.132 426.672 247.583 426.672V426.669Z" fill="#2B9651"/>
<path d="M181.341 452.677C185.269 452.789 188.656 451.226 190.905 447.67C194.107 442.605 194.423 437.132 191.946 431.679C189.764 426.87 185.167 424.601 179.604 425.16C175.359 425.586 171.622 428.956 170.353 433.545C169.565 436.392 169.527 439.3 170.008 442.189C171.131 448.959 174.534 452.733 181.341 452.677ZM169.709 423.563C172.188 421.293 174.751 419.683 177.702 418.828C187.763 415.914 198.865 423.438 200.358 434.172C200.908 438.123 200.891 442.068 199.741 445.896C197.554 453.18 192.676 457.387 185.612 458.997C176.904 460.981 168.038 456.493 164.357 448.2C163.258 445.724 162.666 443.107 162.575 440.382C162.286 431.653 162.128 422.918 162.602 414.195C162.95 407.793 165.053 402.074 169.744 397.737C176.299 391.675 186.675 391.588 193.885 397.357C195.639 398.76 197.143 400.406 198.42 402.283C199.749 404.239 199.466 406.325 197.7 407.626C195.835 408.999 193.858 408.611 192.57 406.551C190.826 403.76 188.637 401.521 185.537 400.489C178.569 398.172 172.375 402.05 170.478 409.877C169.408 414.291 169.729 418.793 169.709 423.563Z" fill="#2B9651"/>
<path d="M146.804 426.152C146.804 422.078 146.873 418.001 146.782 413.928C146.709 410.713 145.772 407.72 144.005 405.065C139.259 397.924 129.388 397.524 124.201 404.276C121.792 407.414 120.821 411.112 120.796 415.068C120.746 422.426 120.766 429.786 120.789 437.145C120.799 440.048 121.424 442.822 122.674 445.425C127.113 454.666 138.222 454.597 143.133 448.305C145.398 445.403 146.65 442.075 146.772 438.374C146.905 434.304 146.802 430.226 146.804 426.152ZM154.043 426.058C154.043 430.463 154.04 434.869 154.044 439.274C154.052 448.18 147.234 457.096 137.635 459.051C127.297 461.156 116.904 454.325 114.18 443.728C113.767 442.119 113.567 440.477 113.569 438.806C113.575 430.328 113.548 421.849 113.577 413.371C113.614 403.073 121.756 393.882 131.619 392.949C142.026 391.967 151.161 398.651 153.6 409.019C154.002 410.731 154.065 412.47 154.072 414.214C154.088 418.162 154.077 422.11 154.077 426.058H154.043Z" fill="#2B9651"/>
<path d="M406.101 463.098C396.063 463.098 386.026 463.098 375.987 463.097C375.588 463.097 375.187 463.12 374.792 463.079C372.986 462.896 371.637 461.46 371.671 459.779C371.704 458.109 373.12 456.7 374.928 456.624C376.28 456.569 377.637 456.61 378.991 456.61C386.521 456.61 394.049 456.596 401.578 456.63C402.405 456.634 402.638 456.435 402.633 455.547C402.593 449.518 402.594 443.489 402.632 437.459C402.636 436.596 402.442 436.35 401.591 436.356C396.094 436.399 390.597 436.378 385.099 436.379C384.462 436.379 383.832 436.367 383.207 436.178C381.591 435.691 380.508 434.327 380.628 432.886C380.751 431.418 382.125 430.082 383.715 429.907C384.111 429.863 384.511 429.872 384.91 429.872C399.09 429.87 413.271 429.872 427.454 429.864C428.42 429.864 429.357 429.913 430.205 430.48C432.23 431.833 432.24 434.316 430.225 435.677C429.387 436.243 428.462 436.382 427.491 436.381C421.993 436.376 416.497 436.396 411 436.359C410.195 436.354 409.916 436.517 409.923 437.43C409.965 443.459 409.972 449.49 409.917 455.519C409.908 456.535 410.263 456.629 411.076 456.626C419.043 456.599 427.01 456.61 434.977 456.61C435.535 456.61 436.092 456.609 436.65 456.61C439.162 456.614 440.671 457.812 440.687 459.814C440.702 461.82 439.107 463.096 436.575 463.097C433.349 463.099 430.122 463.098 426.896 463.098H406.101Z" fill="#2B9651"/>
<path d="M485.398 415.927C483.251 415.927 481.102 415.942 478.955 415.918C478.404 415.912 478.091 415.961 478.101 416.693C478.139 419.806 478.125 422.92 478.109 426.032C478.106 426.553 478.24 426.762 478.775 426.76C483.108 426.743 487.443 426.74 491.777 426.762C492.363 426.765 492.512 426.551 492.507 425.972C492.485 422.901 492.471 419.83 492.515 416.759C492.526 415.974 492.208 415.906 491.601 415.916C489.533 415.947 487.465 415.927 485.398 415.927ZM485.33 444.077C487.441 444.077 489.552 444.06 491.662 444.088C492.246 444.097 492.517 443.977 492.511 443.277C492.478 440.16 492.483 437.041 492.508 433.924C492.513 433.313 492.31 433.157 491.752 433.159C487.491 433.18 483.228 433.183 478.967 433.157C478.329 433.153 478.156 433.376 478.162 434.017C478.189 437.052 478.199 440.087 478.156 443.121C478.146 443.914 478.4 444.108 479.116 444.092C481.186 444.049 483.259 444.077 485.33 444.077ZM470.783 429.983C470.783 425.159 470.779 420.335 470.785 415.512C470.79 412.097 473.044 409.518 476.316 409.472C482.33 409.385 488.346 409.383 494.36 409.47C497.625 409.516 499.977 412.188 499.991 415.608C500.008 419.725 499.995 423.841 499.995 427.958C499.995 433.394 500.001 438.831 499.993 444.268C499.988 447.842 497.884 450.311 494.45 450.377C488.437 450.495 482.42 450.497 476.407 450.389C472.918 450.325 470.786 447.831 470.784 444.202C470.781 439.462 470.783 434.721 470.783 429.983Z" fill="#2B9651"/>
<path d="M516.423 424.445V448.638C516.423 456.137 512.945 461.171 506.112 463.544C504.288 464.178 502.4 464.448 500.485 464.525C500.092 464.542 499.689 464.497 499.302 464.419C497.5 464.06 496.374 462.747 496.466 461.143C496.557 459.535 497.955 458.191 499.721 458.122C501.124 458.067 502.491 457.904 503.809 457.379C507.303 455.988 509.033 453.389 509.033 449.505C509.033 432.919 509.022 416.333 509.057 399.747C509.059 398.668 508.836 398.374 507.766 398.38C498.289 398.429 488.81 398.411 479.333 398.402C478.698 398.402 478.054 398.372 477.432 398.26C475.617 397.936 474.472 396.627 474.551 395.036C474.625 393.538 476.037 392.166 477.696 391.99C477.972 391.962 478.254 391.967 478.532 391.967C489.005 391.966 499.478 391.971 509.953 391.961C511.128 391.959 512.258 392.124 513.29 392.719C515.278 393.865 516.448 395.502 516.438 398.007C516.401 406.82 516.423 415.632 516.423 424.445Z" fill="#2B9651"/>
<path d="M403.167 396.742C402.411 395.036 401.718 393.511 401.062 391.968C400.167 389.868 401.014 388.052 403.141 387.448C405.267 386.845 407.114 387.732 408.058 389.822C408.938 391.771 409.854 393.704 410.661 395.685C410.992 396.496 411.395 396.769 412.244 396.764C418.937 396.725 425.63 396.744 432.324 396.741C434.079 396.741 435.728 397.114 437.114 398.312C438.342 399.371 439.003 400.668 438.938 402.423C438.843 405.081 438.917 407.744 438.909 410.406C438.901 412.653 437.411 414.148 435.187 414.176C433.284 414.199 431.327 412.733 431.491 410.398C431.628 408.412 431.467 406.405 431.541 404.412C431.577 403.447 431.331 403.179 430.381 403.184C421.816 403.227 413.25 403.209 404.684 403.209C397.036 403.209 389.386 403.226 381.737 403.186C380.848 403.182 380.582 403.4 380.615 404.348C380.689 406.467 380.654 408.59 380.632 410.711C380.611 412.693 379.18 414.1 377.16 414.172C375.057 414.248 373.314 412.826 373.268 410.839C373.203 407.93 373.17 405.013 373.277 402.107C373.396 398.914 376.049 396.763 379.763 396.751C387.015 396.727 394.265 396.743 401.516 396.742H403.167Z" fill="#2B9651"/>
<path d="M438.936 427.082C438.941 429.418 435.568 431.001 433.246 429.573C432.774 429.283 432.36 428.87 431.97 428.461C426.806 423.043 420.846 418.848 414.156 415.763C411.968 414.754 411.058 413.155 411.706 411.482C412.4 409.687 414.804 408.837 416.832 409.708C422.867 412.3 428.384 415.785 433.35 420.213C434.985 421.672 436.537 423.223 438.022 424.846C438.559 425.432 438.965 426.077 438.936 427.082Z" fill="#2B9651"/>
<path d="M377.007 429.92C376.016 429.959 375.174 429.624 374.436 429.011C372.929 427.759 372.901 425.813 374.407 424.543C374.861 424.159 375.419 423.894 375.956 423.636C382.661 420.413 388.77 416.292 393.969 410.77C395.615 409.023 397.691 408.804 399.344 410.104C401.081 411.471 401.228 413.123 399.723 414.741C394.854 419.977 389.23 424.136 383.015 427.442C381.672 428.157 380.295 428.803 378.932 429.475C378.314 429.779 377.67 429.984 377.007 429.92Z" fill="#2B9651"/>
<path d="M471.088 404.615C469.768 404.542 468.699 404.203 467.846 403.147C464.898 399.496 461.895 395.896 458.92 392.269C457.915 391.044 457.965 389.62 459.021 388.475C460.506 386.864 463.278 386.837 464.691 388.514C467.817 392.224 470.915 395.959 473.978 399.725C475.408 401.481 474.555 403.773 472.293 404.421C471.874 404.539 471.431 404.561 471.088 404.615Z" fill="#2B9651"/>
</g>
</svg>
