<svg width="238" height="221" viewBox="0 0 238 221" fill="none" xmlns="http://www.w3.org/2000/svg">
<path d="M214.514 106.777L201.94 84.9717L180.566 47.9078L167.992 26.1028C166.952 24.2912 164.642 23.6706 162.842 24.7166H162.837L147.593 33.5296C145.788 34.5706 143.483 33.955 142.443 32.1483L133.624 16.8944C132.584 15.0827 130.274 14.4622 128.474 15.5081H128.469L26.095 74.6672H26.09C24.2851 75.7132 23.6701 78.0203 24.7101 79.8269L33.5096 95.0909C34.5495 96.8976 33.9346 99.2047 32.1297 100.246L16.8905 109.059H16.8855C15.0806 110.105 14.4657 112.412 15.5056 114.218L28.0799 136.023L49.4537 173.087L62.028 194.892C63.0679 196.704 65.3778 197.324 67.1777 196.278H67.1827L82.4268 187.465C84.2317 186.424 86.5366 187.04 87.5765 188.847L96.376 204.106C97.416 205.917 99.7259 206.538 101.526 205.492H101.531L203.9 146.328H203.905C205.71 145.282 206.325 142.975 205.285 141.168L196.485 125.904C195.445 124.097 196.06 121.79 197.865 120.749L213.109 111.941H213.114C214.919 110.895 215.534 108.588 214.494 106.782L214.514 106.777Z" fill="#2D4A75" stroke="white" stroke-width="30"/>
<path d="M193.476 119.721L169.456 78.3299L156.474 55.9552L145.437 36.939C144.364 35.0851 141.979 34.4483 140.115 35.5216L121 46.501L133.983 68.8757L135.924 72.224L145.024 87.9022L146.965 91.2505L172.936 136L192.051 125.021C193.914 123.952 194.555 121.58 193.476 119.726V119.721Z" fill="#75BFA8"/>
<path d="M214.514 106.777L201.94 84.9717L180.566 47.9078L167.992 26.1028C166.952 24.2912 164.642 23.6706 162.842 24.7166H162.837L147.593 33.5296C145.788 34.5706 143.483 33.955 142.443 32.1483L133.624 16.8944C132.584 15.0827 130.274 14.4622 128.474 15.5081H128.469L26.095 74.6672H26.09C24.2851 75.7132 23.6701 78.0203 24.7101 79.8269L33.5096 95.0909C34.5495 96.8976 33.9346 99.2047 32.1297 100.246L16.8905 109.059H16.8855C15.0806 110.105 14.4657 112.412 15.5056 114.218L28.0799 136.023L49.4537 173.087L62.028 194.892C63.0679 196.704 65.3778 197.324 67.1777 196.278H67.1827L82.4268 187.465C84.2317 186.424 86.5366 187.04 87.5765 188.847L96.376 204.106C97.416 205.917 99.7259 206.538 101.526 205.492H101.531L203.9 146.328H203.905C205.71 145.282 206.325 142.975 205.285 141.168L196.485 125.904C195.445 124.097 196.06 121.79 197.865 120.749L213.109 111.941H213.114C214.919 110.895 215.534 108.588 214.494 106.782L214.514 106.777ZM191.351 124.523H191.346L172.837 135.218L151.053 147.804L129.269 160.391L107.485 172.977L88.9765 183.672H88.9715C87.1666 184.713 84.8617 184.097 83.8218 182.291V182.286L75.0222 167.027L73.1374 163.759L71.2525 160.491L60.5631 141.959L49.8737 123.427L47.9888 120.154L46.1039 116.886L37.3044 101.627V101.622C36.2644 99.8152 36.8794 97.5081 38.6843 96.4672H38.6893L57.1983 85.7724L78.982 73.1859L100.766 60.5994L122.55 48.0129L141.059 37.3181H141.064C142.868 36.2771 145.173 36.8927 146.213 38.6993V38.7043L155.013 53.9633L156.898 57.2313L158.783 60.5043L169.472 79.0362L180.161 97.5682L182.046 100.836L183.931 104.104L192.731 119.363V119.368C193.771 121.175 193.156 123.482 191.351 124.523Z" fill="#2D4A75"/>
<path d="M157.358 108.834L147.578 91.7287L145.721 88.4772L144.985 87.1905L142.343 82.5675L137.018 73.2516L135.161 70L131.941 71.8751L116.862 80.6674C115.084 81.7047 114.471 83.9988 115.498 85.7941L123.465 99.733L124.201 101.02L126.058 104.271L135.838 121.377L138.48 126L141.701 124.125L156.78 115.333L160 113.457L157.358 108.834Z" fill="#2D4A75"/>
<path d="M136.853 122.853L126.154 104.255L124.274 100.982L115.456 85.6563C114.415 83.8492 115.03 81.535 116.836 80.4959L132.106 71.6461L135.368 69.7586L124.669 51.1603C123.628 49.3532 124.244 47.0391 126.049 46L122.788 47.8874L100.995 60.5122L79.2028 73.1369L57.4101 85.7617L38.8885 96.494C37.0829 97.5381 36.4627 99.8572 37.508 101.669L48.2018 120.258L60.7813 142.129L73.3607 164L95.1534 151.375L92.5925 146.928L82.569 129.504L80.6883 126.231L80.6133 126.106L71.8702 110.911C70.8298 109.104 71.445 106.79 73.2507 105.75L88.5211 96.9006C90.3217 95.8565 92.6275 96.4739 93.6629 98.286L102.406 113.481L102.481 113.606L104.362 116.879L114.385 134.303L116.946 138.751L138.739 126.126L142 124.238C140.199 125.282 137.899 124.665 136.858 122.853H136.853Z" fill="#FFE474"/>
<path d="M114.416 133.923L104.3 116.494L102.402 113.22L93.5026 97.8903C92.4526 96.0827 90.1306 95.465 88.3134 96.5044L72.9025 105.357C71.0853 106.401 70.4594 108.711 71.5094 110.519L80.4086 125.849L82.3066 129.122L92.4223 146.551L95.0068 151L100.191 148.022L113.709 140.26L117 138.372L114.416 133.923Z" fill="#2D4A75"/>
<path d="M170.808 131.87L160.005 113L156.712 114.915L141.293 123.894L138 125.809L150.702 148L172.707 135.191L176 133.276C174.182 134.335 171.854 133.709 170.808 131.87Z" fill="#699BFF"/>
<path d="M148.872 144.484L138.202 126L116.468 138.547L113.216 140.423L97.9864 149.219L94.734 151.095L73 163.642L83.665 182.116C84.7025 183.917 87.0071 184.536 88.8079 183.493L107.28 172.827L129.014 160.279L150.748 147.732L154 145.856C152.204 146.894 149.905 146.28 148.872 144.479V144.484Z" fill="#75BFA8"/>
</svg>
