<svg width="40" height="66" viewBox="0 0 40 66" fill="none" xmlns="http://www.w3.org/2000/svg">
<path d="M38.6923 55.2603L34.993 51.561C33.5511 49.9232 32.7181 47.838 32.6347 45.6575L32.6347 44.8252C32.7492 42.6584 33.6034 40.5963 35.0547 38.9833L38.7541 35.284C39.3905 34.6394 39.7475 33.77 39.7475 32.8641C39.7475 31.9581 39.3906 31.0887 38.754 30.4441L35.0547 26.7448C33.5918 25.1533 32.721 23.1069 32.5885 20.9492L32.5885 20.1169C32.703 17.9501 33.5572 15.8881 35.0085 14.275L38.6923 10.5912C39.3341 9.94934 39.6947 9.07882 39.6948 8.17118C39.6947 7.26355 39.3342 6.39307 38.6924 5.75123L34.3611 1.41993C33.7193 0.778168 32.8488 0.417555 31.9412 0.417575C31.0335 0.417595 30.163 0.778175 29.5211 1.42L25.1899 5.75123C24.5481 6.39306 24.1875 7.26359 24.1875 8.17122C24.1875 9.07885 24.5481 9.9494 25.1898 10.5912L28.8738 14.2751C30.3582 15.9018 31.2302 17.9944 31.34 20.194L31.34 21.0263C31.2203 23.1919 30.3668 25.2522 28.9201 26.8681L25.2207 30.5674C24.5842 31.212 24.2273 32.0815 24.2273 32.9873C24.2273 33.8932 24.5842 34.7627 25.2207 35.4073L28.92 39.1066C30.3404 40.7167 31.1766 42.7584 31.2938 44.9022L31.2938 45.7346C31.174 47.9002 30.3205 49.9605 28.8738 51.5764L25.1745 55.2757C24.5379 55.9203 24.181 56.7897 24.181 57.6956C24.181 58.6016 24.538 59.471 25.1744 60.1156L29.5211 64.4622C30.1658 65.0988 31.0352 65.4558 31.9411 65.4558C32.847 65.4557 33.7164 65.0989 34.3611 64.4623L38.7078 60.1156C39.3469 59.4683 39.7041 58.5944 39.7012 57.6848C39.6983 56.7751 39.3356 55.9035 38.6923 55.2603Z" fill="black"/>
<path d="M14.6422 30.5763L10.0623 25.9964C8.64914 24.5832 6.46099 24.4801 5.17496 25.7662L1.00733 29.9338C-0.278704 31.2198 -0.175552 33.4079 1.23765 34.8211L5.81748 39.4009C7.23068 40.8141 9.41876 40.9173 10.7048 39.6313L14.8724 35.4636C16.1585 34.1776 16.0554 31.9895 14.6422 30.5763Z" fill="black"/>
<path d="M26.782 42.2192L23.0631 38.5003C21.5964 36.8736 20.7219 34.8043 20.5855 32.6376L20.5672 32.3448C20.6665 30.1671 21.5101 28.1044 22.9572 26.5004L26.617 22.8406C27.2259 22.2163 27.5657 21.3761 27.5654 20.4952C27.5651 19.6143 27.2248 18.7605 26.6154 18.1119L22.1653 13.6617C21.5173 13.0138 20.6437 12.6447 19.7366 12.6356C18.8295 12.6264 17.9632 12.9779 17.3283 13.6129L13.0433 17.8978C12.4084 18.5328 12.0568 19.3991 12.0659 20.3063C12.0751 21.2134 12.4443 22.0869 13.0922 22.7348L16.8266 26.4692C18.2858 28.1006 19.1592 30.1672 19.3041 32.332L19.2917 32.6245C19.1991 34.7889 18.3662 36.841 16.9321 38.4384L13.2876 42.0828C12.9719 42.3985 12.7231 42.7748 12.5554 43.1899C12.3877 43.6052 12.3044 44.0511 12.3104 44.5022C12.3163 44.9531 12.4115 45.4003 12.5903 45.8179C12.7691 46.2355 13.0279 46.6153 13.3521 46.9354L17.7089 51.2923C18.3568 51.9401 19.2304 52.3093 20.1375 52.3185C21.0446 52.3277 21.911 51.9761 22.5459 51.3411L26.8309 47.0562C27.4658 46.4213 27.8173 45.5549 27.8082 44.6478C27.799 43.7407 27.4299 42.8671 26.782 42.2192Z" fill="black"/>
</svg>
