<svg width="256" height="256" viewBox="0 0 256 256" fill="none" xmlns="http://www.w3.org/2000/svg">
<rect width="256" height="256" fill="white"/>
<path fill-rule="evenodd" clip-rule="evenodd" d="M53.6624 177.167C51.8723 175.377 51.8333 172.498 53.4654 170.563C66.935 154.591 74.2512 134.628 74.2512 113.429V78.589C74.2512 75.9941 76.3548 73.8905 78.9497 73.8905H116.268C118.863 73.8905 120.966 75.9941 120.966 78.589V113.429C120.966 147.018 108.883 178.639 86.7563 203.467C85.0019 205.435 81.9612 205.466 80.0967 203.601L53.6624 177.167ZM139.732 182.11C137.137 182.11 135.034 180.006 135.034 177.411V142.571C135.034 108.982 147.117 77.361 169.244 52.5332C170.998 50.5647 174.039 50.5344 175.903 52.3989L202.338 78.8332C204.128 80.6233 204.167 83.5021 202.535 85.4374C189.065 101.409 181.749 121.372 181.749 142.571V177.411C181.749 180.006 179.645 182.11 177.05 182.11H139.732Z" fill="url(#paint0_linear_195_740)"/>
<defs>
<linearGradient id="paint0_linear_195_740" x1="81.79" y1="207" x2="184.64" y2="60.1686" gradientUnits="userSpaceOnUse">
<stop offset="0.0519079" stop-color="#9945FF"/>
<stop offset="0.888136" stop-color="#FF1FC0"/>
</linearGradient>
</defs>
</svg>
