<svg width="554" height="369" viewBox="0 0 554 369" fill="none" xmlns="http://www.w3.org/2000/svg">
<g clip-path="url(#clip0_408_1398)">
<path d="M432.673 20.1485C429.738 18.7647 426.704 17.4467 423.687 16.2276L424.924 13.1797C427.99 14.4153 431.074 15.7663 434.075 17.1666L432.673 20.1321V20.1485Z" fill="#231F20"/>
<path d="M534.539 155.538C528.669 118.074 511.455 83.9879 484.777 56.953C473.581 45.6019 460.918 35.7665 447.134 27.7269L448.783 24.8932C462.814 33.0812 475.708 43.0813 487.118 54.6465C514.275 82.1757 531.802 116.888 537.787 155.027L534.539 155.538Z" fill="#231F20"/>
<path d="M213.393 292.706C190.557 261.948 178.355 225.489 178.075 187.251H181.356C181.62 224.764 193.607 260.564 216.015 290.745L213.377 292.706H213.393Z" fill="#231F20"/>
<path d="M212.751 85.9484L210.063 84.0703C211.959 81.352 213.954 78.6502 215.999 76.0471L218.588 78.0735C216.576 80.6271 214.63 83.2795 212.767 85.9484H212.751Z" fill="#231F20"/>
<path d="M243.468 52.2577L241.358 49.7536C260.204 33.872 281.738 22.2738 305.35 15.272L306.289 18.4187C283.107 25.2886 261.968 36.6726 243.468 52.2577Z" fill="#231F20"/>
<path d="M374.172 12.2572C368.484 11.6476 362.697 11.3181 356.975 11.2687C355.095 11.2687 353.216 11.2687 351.352 11.3181L351.27 8.03964C353.183 7.99022 355.095 7.97374 357.008 7.99022C362.845 8.03964 368.748 8.36914 374.535 8.99517L374.189 12.2572H374.172Z" fill="#231F20"/>
<path d="M430.464 28.2211C427.529 26.8208 424.512 25.4699 421.511 24.2507L422.764 21.2194C425.814 22.4715 428.898 23.8389 431.882 25.2722L430.464 28.2376V28.2211Z" fill="#231F20"/>
<path d="M527.597 166.131C523.673 127.316 506.41 90.6108 478.957 62.7686C465.667 49.2923 450.333 38.1389 433.399 29.638L434.866 26.7055C452.13 35.3547 467.744 46.7222 481.298 60.4621C509.262 88.8315 526.872 126.246 530.862 165.801L527.597 166.131Z" fill="#231F20"/>
<path d="M217.038 283.661C199.148 258.01 188.645 227.977 186.649 196.807L189.931 196.592C191.876 227.153 202.182 256.61 219.725 281.783L217.038 283.661Z" fill="#231F20"/>
<path d="M519.864 172.572C517.276 133.494 500.672 96.5581 473.12 68.6006C456.697 51.9282 437.274 39.1603 415.41 30.6759L416.597 27.6116C438.89 36.2608 458.692 49.2758 475.461 66.2941C503.557 94.8283 520.491 132.489 523.146 172.358L519.864 172.572Z" fill="#231F20"/>
<path d="M522.766 198.948L519.501 198.635C519.798 195.406 520.013 192.111 520.128 188.866L523.409 188.981C523.294 192.293 523.079 195.637 522.766 198.932V198.948Z" fill="#231F20"/>
<path d="M223.221 278.109C206.765 254.188 197.004 226.28 194.959 197.383L198.241 197.153C200.236 225.473 209.816 252.821 225.925 276.248L223.221 278.109Z" fill="#231F20"/>
<path d="M287.74 43.1472L286.322 40.1818C290.312 38.2707 294.434 36.5079 298.573 34.9428L299.743 38.0071C295.687 39.5392 291.664 41.2691 287.74 43.1472Z" fill="#231F20"/>
<path d="M302.81 36.8868L301.706 33.7896C302.744 33.4107 303.8 33.0482 304.855 32.7022L305.894 35.816C304.855 36.1619 303.833 36.5079 302.81 36.8868Z" fill="#231F20"/>
<path d="M515.066 191.271L511.785 191.106C511.9 188.948 511.95 186.774 511.966 184.665C512.312 143.198 496.451 104.054 467.282 74.4326C439.78 46.4916 403.01 29.9839 363.751 27.9575L363.916 24.6791C404 26.7384 441.527 43.592 469.624 72.1262C499.402 102.374 515.594 142.358 515.247 184.681C515.231 186.839 515.165 189.063 515.049 191.271H515.066Z" fill="#231F20"/>
<path d="M229.948 273.364C218.867 257.219 211.035 239.377 206.666 220.299L209.865 219.575C214.135 238.24 221.802 255.704 232.652 271.503L229.948 273.364Z" fill="#231F20"/>
<path d="M206.683 220.3C206.073 217.614 205.512 214.863 205.05 212.128L208.282 211.568C208.744 214.237 209.288 216.922 209.881 219.558L206.683 220.283V220.3Z" fill="#231F20"/>
<path d="M503.557 176.081C501.777 140.051 486.822 106.015 461.462 80.2317C433.729 52.0271 396.613 36.3102 356.959 35.9642H355.491V32.6693H356.992C397.52 33.0318 435.46 49.0946 463.804 77.9253C489.724 104.285 505.008 139.079 506.839 175.9L503.557 176.065V176.081Z" fill="#231F20"/>
<path d="M233.559 263.842C224.012 248.702 217.4 232.128 213.888 214.599L217.103 213.957C220.533 231.09 226.997 247.285 236.329 262.096L233.542 263.842H233.559Z" fill="#231F20"/>
<path d="M369.077 44.8441C365.071 44.4652 360.998 44.251 356.958 44.2016C353.413 44.1686 349.819 44.2675 346.274 44.5146L346.06 41.2361C349.687 40.989 353.364 40.8902 356.991 40.9231C361.114 40.9561 365.285 41.1867 369.391 41.5656L369.077 44.8276V44.8441Z" fill="#231F20"/>
<path d="M492.955 157.037C487.745 130.166 474.834 105.636 455.625 86.0802C433.432 63.477 403.835 48.9628 372.309 45.2065L372.705 41.9445C404.973 45.7996 435.262 60.6433 457.983 83.7738C477.654 103.791 490.861 128.914 496.187 156.411L492.955 157.037Z" fill="#231F20"/>
<path d="M234.663 249.196C230.08 240.3 226.452 230.909 223.896 221.239L227.079 220.398C229.585 229.822 233.114 238.998 237.598 247.68L234.68 249.18L234.663 249.196Z" fill="#231F20"/>
<path d="M317.139 58.1721L316.183 55.0254C319.348 54.0699 322.613 53.1967 325.861 52.4719L326.587 55.668C323.421 56.3764 320.239 57.2166 317.139 58.1556V58.1721Z" fill="#231F20"/>
<path d="M371.914 53.4439C366.967 52.8343 361.938 52.5048 356.959 52.4554C352.193 52.406 347.379 52.6201 342.647 53.0814L342.317 49.8194C347.164 49.3417 352.095 49.1275 356.975 49.1769C362.087 49.2264 367.231 49.5723 372.293 50.1984L371.897 53.4604L371.914 53.4439Z" fill="#231F20"/>
<path d="M481.117 143.873C474.934 124.45 464.101 106.476 449.805 91.8958C429.871 71.5825 403.357 58.0897 375.129 53.8887L375.607 50.6432C404.528 54.9431 431.701 68.7818 452.13 89.6058C466.788 104.548 477.885 122.967 484.233 142.885L481.1 143.873H481.117Z" fill="#231F20"/>
<path d="M239.824 241.008C237.467 235.983 235.422 230.761 233.724 225.489L236.856 224.484C238.505 229.624 240.5 234.715 242.809 239.608L239.841 241.008H239.824Z" fill="#231F20"/>
<path d="M309.851 69.4243L308.647 66.3765C314.847 63.9218 321.278 61.9448 327.774 60.4786L328.5 63.6747C322.168 65.0915 315.902 67.019 309.851 69.4079V69.4243Z" fill="#231F20"/>
<path d="M367.313 61.2364C363.883 60.9069 360.404 60.7257 356.958 60.6928C353.908 60.6598 350.841 60.7422 347.807 60.9399L347.593 57.6614C350.709 57.4637 353.858 57.3813 356.975 57.4143C360.503 57.4472 364.081 57.6449 367.61 57.9744L367.296 61.2364H367.313Z" fill="#231F20"/>
<path d="M435.312 89.6882C417.785 74.9433 396.498 65.3715 373.777 62.0107L374.255 58.7652C397.586 62.2084 419.417 72.0273 437.422 87.1676L435.312 89.6717V89.6882Z" fill="#231F20"/>
<path d="M438.972 92.9007C438.577 92.5383 438.164 92.1758 437.769 91.8134L439.945 89.3586C440.357 89.7211 440.769 90.1 441.182 90.4789L438.972 92.9007Z" fill="#231F20"/>
<path d="M473.004 145.587C467.184 127.712 457.142 111.171 443.968 97.7278C442.352 96.0804 440.67 94.4659 438.972 92.9172L441.182 90.4955C442.929 92.0935 444.661 93.7574 446.309 95.4379C459.83 109.244 470.135 126.229 476.121 144.582L473.004 145.603V145.587Z" fill="#231F20"/>
<path d="M430.909 284.238L428.98 281.585C433.349 278.422 437.537 274.93 441.462 271.19L443.721 273.562C439.697 277.401 435.377 280.992 430.893 284.254L430.909 284.238Z" fill="#231F20"/>
<path d="M369.061 307.352L368.781 304.09C378.492 303.233 388.105 301.19 397.355 298.027L398.427 301.124C388.93 304.386 379.053 306.479 369.078 307.352H369.061Z" fill="#231F20"/>
<path d="M320.09 74.4985L319.084 71.3683C324.377 69.6714 329.835 68.3205 335.309 67.3815L335.87 70.6105C330.544 71.5331 325.251 72.8346 320.09 74.4985Z" fill="#231F20"/>
<path d="M441.742 107.398C440.571 106.08 439.351 104.779 438.148 103.543C416.647 81.5661 387.808 69.276 356.958 68.9301C351.006 68.8642 344.971 69.2596 339.068 70.1162L338.59 66.8707C344.658 65.9976 350.841 65.5857 356.991 65.6516C388.715 66.014 418.378 78.6501 440.489 101.253C441.742 102.522 442.979 103.856 444.199 105.224L441.742 107.415V107.398Z" fill="#231F20"/>
<path d="M464.579 146.378C460.341 134.038 454.059 122.588 445.93 112.357L448.502 110.314C456.862 120.842 463.325 132.605 467.695 145.307L464.595 146.378H464.579Z" fill="#231F20"/>
<path d="M467.349 155.719C466.821 153.626 466.228 151.518 465.584 149.458L468.717 148.486C469.377 150.595 469.987 152.753 470.531 154.911L467.349 155.702V155.719Z" fill="#231F20"/>
<path d="M429.87 274.699L427.842 272.129C430.926 269.691 433.91 267.071 436.73 264.32C440.868 260.284 444.726 255.885 448.205 251.239L450.844 253.199C447.266 257.961 443.292 262.491 439.038 266.659C436.152 269.476 433.069 272.178 429.887 274.699H429.87Z" fill="#231F20"/>
<path d="M365.252 299.362L365.054 296.083C379.201 295.226 392.887 291.75 405.764 285.737L407.149 288.702C393.909 294.897 379.811 298.472 365.252 299.362Z" fill="#231F20"/>
<path d="M405.286 89.2928C390.446 81.5497 373.727 77.3651 356.958 77.1674C344.444 77.0027 332.077 79.0291 320.222 83.1477L319.134 80.0505C331.352 75.8 344.048 73.7077 356.991 73.889C374.271 74.1031 391.502 78.4195 406.803 86.3932L405.286 89.3093V89.2928Z" fill="#231F20"/>
<path d="M454.62 143.297C449.426 130.611 441.924 119.194 432.311 109.375C425.171 102.077 417.042 95.8497 408.139 90.8579L409.738 87.9913C418.922 93.1314 427.298 99.5565 434.652 107.085C444.545 117.217 452.278 128.98 457.637 142.061L454.603 143.297H454.62Z" fill="#231F20"/>
<path d="M460.918 165.076C459.797 158.701 458.066 152.391 455.807 146.328L458.89 145.175C461.231 151.435 463.012 157.943 464.166 164.516L460.935 165.093L460.918 165.076Z" fill="#231F20"/>
<path d="M434.289 259.74L431.964 257.417C432.723 256.643 433.481 255.868 434.223 255.078L436.631 257.318C435.872 258.125 435.097 258.933 434.306 259.723L434.289 259.74Z" fill="#231F20"/>
<path d="M362.399 291.256L362.268 287.978C379.58 287.302 396.629 282.244 411.535 273.348L413.217 276.165C397.833 285.342 380.256 290.564 362.383 291.256H362.399Z" fill="#231F20"/>
<path d="M310.609 96.1627L309.125 93.2303C310.115 92.7195 311.121 92.2418 312.143 91.764L313.528 94.7459C312.555 95.2072 311.582 95.6685 310.609 96.1627Z" fill="#231F20"/>
<path d="M392.359 92.423C381.048 87.9254 369.143 85.553 356.958 85.4048C346.323 85.2565 335.771 86.8216 325.614 90.0342L324.625 86.904C335.111 83.5761 345.994 81.978 357.008 82.1098C369.605 82.2746 381.905 84.7128 393.596 89.3752L392.376 92.423H392.359Z" fill="#231F20"/>
<path d="M440.736 133.84C436.762 127.086 431.964 120.809 426.474 115.191C419.862 108.42 412.327 102.637 404.066 98.0079L405.665 95.1413C414.206 99.919 422.005 105.899 428.832 112.901C434.487 118.717 439.45 125.191 443.572 132.176L440.736 133.84Z" fill="#231F20"/>
<path d="M453.399 170.332C451.948 159.59 448.733 149.228 443.853 139.524L446.787 138.041C451.833 148.074 455.164 158.783 456.664 169.887L453.416 170.332H453.399Z" fill="#231F20"/>
<path d="M360.52 283.085L360.454 279.806C384.527 279.262 407.364 269.724 424.759 252.969L427.034 255.325C409.046 272.656 385.434 282.524 360.537 283.085H360.52Z" fill="#231F20"/>
<path d="M445.6 174.665C443.622 154.582 434.767 135.521 420.653 121.007C403.818 103.692 381.196 93.9716 356.958 93.6256C339.101 93.3456 321.689 98.3209 306.586 107.909L304.822 105.141C320.469 95.1907 338.541 90.0671 357.008 90.3472C382.12 90.7096 405.566 100.776 423.011 118.717C437.653 133.774 446.837 153.528 448.881 174.335L445.617 174.665H445.6Z" fill="#231F20"/>
<path d="M448.173 197.762L444.924 197.251C445.584 193.1 445.947 188.866 446.013 184.648C446.029 183.479 446.013 182.309 445.996 181.139L449.277 181.057C449.31 182.276 449.31 183.479 449.294 184.698C449.228 189.064 448.849 193.462 448.173 197.762Z" fill="#231F20"/>
<path d="M359.63 274.864L359.58 271.585C381.938 271.256 403.126 262.458 419.219 246.84C421.197 244.929 423.11 242.886 424.891 240.794L427.397 242.919C425.534 245.094 423.555 247.219 421.511 249.196C404.808 265.407 382.829 274.518 359.63 274.864Z" fill="#231F20"/>
<path d="M310.197 115.389L308.4 112.637C314.979 108.354 322.118 104.977 329.604 102.604L330.593 105.735C323.388 108.008 316.529 111.254 310.197 115.389Z" fill="#231F20"/>
<path d="M346.373 102.39L346.01 99.1282C348.22 98.8811 350.479 98.7163 352.721 98.6339L352.836 101.912C350.693 101.978 348.516 102.143 346.389 102.39H346.373Z" fill="#231F20"/>
<path d="M368.945 102.934C365.005 102.291 360.965 101.929 356.958 101.879H356.068L356.084 98.5845H357.008C361.179 98.6504 365.367 99.0293 369.473 99.6883L368.945 102.934Z" fill="#231F20"/>
<path d="M401.758 115.899C392.755 109.837 382.779 105.669 372.128 103.51L372.787 100.298C383.868 102.538 394.239 106.888 403.604 113.181L401.774 115.899H401.758Z" fill="#231F20"/>
<path d="M437.603 178.058C436.35 158.882 428.254 140.694 414.816 126.839C412.359 124.318 409.721 121.913 406.968 119.722L409.012 117.151C411.881 119.425 414.635 121.913 417.174 124.549C431.156 138.964 439.565 157.893 440.885 177.844L437.603 178.058Z" fill="#231F20"/>
<path d="M436.4 210.925L433.3 209.838C436.136 201.716 437.636 193.248 437.768 184.632C437.785 183.512 437.768 182.391 437.768 181.271L441.049 181.189C441.082 182.358 441.082 183.512 441.049 184.681C440.901 193.643 439.335 202.457 436.4 210.909V210.925Z" fill="#231F20"/>
<path d="M358.327 266.626C357.865 266.626 357.403 266.626 356.958 266.626C355.639 266.61 354.32 266.544 353.001 266.462L353.215 263.183C354.485 263.265 355.738 263.315 357.008 263.331C378.129 263.71 398.163 255.753 413.398 240.992C416.91 237.581 420.142 233.842 422.978 229.855L425.649 231.749C422.698 235.901 419.351 239.806 415.69 243.348C400.141 258.389 379.828 266.61 358.327 266.61V266.626Z" fill="#231F20"/>
<path d="M288.053 152.424L285.102 150.974C286.091 148.964 287.163 146.971 288.317 145.06L291.136 146.74C290.032 148.569 288.993 150.48 288.053 152.407V152.424Z" fill="#231F20"/>
<path d="M292.851 144.022L290.114 142.209C290.724 141.27 291.367 140.348 292.027 139.442L294.698 141.369C294.071 142.242 293.461 143.132 292.868 144.022H292.851Z" fill="#231F20"/>
<path d="M305.448 129.392L303.255 126.954C308.268 122.44 313.841 118.601 319.843 115.521L321.343 118.437C315.605 121.385 310.263 125.076 305.448 129.392Z" fill="#231F20"/>
<path d="M365.153 110.71C364.082 110.578 363.026 110.463 361.938 110.364L362.218 107.085C363.34 107.184 364.461 107.3 365.565 107.448L365.153 110.71Z" fill="#231F20"/>
<path d="M380.817 114.466C378.789 113.741 376.728 113.099 374.65 112.555L375.491 109.375C377.651 109.952 379.811 110.611 381.922 111.369L380.817 114.466Z" fill="#231F20"/>
<path d="M358.327 258.405C357.865 258.405 357.404 258.405 356.942 258.405C355.969 258.389 355.013 258.356 354.057 258.29L354.238 255.012C355.161 255.061 356.068 255.094 356.992 255.111C375.904 255.44 393.876 248.372 407.562 235.193C421.379 221.865 429.178 203.924 429.524 184.648C429.871 165.192 422.566 146.724 408.98 132.671C407.133 130.76 405.154 128.914 403.093 127.218L405.187 124.697C407.331 126.476 409.392 128.387 411.338 130.397C425.534 145.093 433.168 164.384 432.805 184.714C432.443 204.863 424.297 223.627 409.837 237.565C395.855 251.041 377.602 258.422 358.311 258.422L358.327 258.405Z" fill="#231F20"/>
<path d="M288.68 181.551L285.398 181.337C286.553 163.561 294.236 147.004 307.015 134.697C319.711 122.473 336.364 115.504 353.908 115.076L353.99 118.354C337.271 118.766 321.393 125.422 309.29 137.069C297.089 148.799 289.768 164.599 288.68 181.551Z" fill="#231F20"/>
<path d="M411.107 148.585C408.798 144.977 406.127 141.583 403.143 138.486C399.433 134.631 395.245 131.237 390.71 128.387L392.458 125.603C397.223 128.585 401.626 132.16 405.517 136.213C408.65 139.458 411.453 143.033 413.877 146.822L411.107 148.585Z" fill="#231F20"/>
<path d="M415.69 157.053C414.833 155.109 413.843 153.182 412.788 151.32L415.641 149.689C416.762 151.649 417.784 153.676 418.691 155.702L415.69 157.037V157.053Z" fill="#231F20"/>
<path d="M359.514 250.152L359.448 246.873C375.261 246.577 390.282 240.349 401.741 229.361C414.009 217.598 420.934 201.716 421.28 184.648C421.428 177.301 420.324 170.052 417.999 163.066L421.115 162.029C423.555 169.36 424.71 177.004 424.561 184.714C424.198 202.655 416.91 219.36 404.017 231.733C391.947 243.315 376.151 249.855 359.514 250.168V250.152Z" fill="#231F20"/>
<path d="M293.972 193.775C293.593 190.76 293.445 187.68 293.511 184.632C293.874 167.778 300.733 152.127 312.852 140.529C324.839 129.063 340.536 122.951 357.024 123.313C359.629 123.362 362.268 123.593 364.856 123.988L364.362 127.234C361.905 126.855 359.415 126.641 356.942 126.591C341.327 126.262 326.471 132.045 315.127 142.901C303.651 153.89 297.138 168.734 296.792 184.714C296.726 187.597 296.874 190.513 297.237 193.38L293.972 193.775Z" fill="#231F20"/>
<path d="M359.217 241.914L359.168 238.636C372.886 238.422 385.945 233.051 395.921 223.529C406.622 213.314 412.706 199.508 413.036 184.632C413.382 169.574 407.792 155.257 397.322 144.302C390.826 137.514 382.664 132.374 373.694 129.442L374.717 126.328C384.181 129.425 392.821 134.862 399.68 142.028C410.76 153.61 416.663 168.767 416.3 184.698C415.938 200.447 409.507 215.077 398.163 225.884C387.578 235.983 373.744 241.667 359.184 241.898L359.217 241.914Z" fill="#231F20"/>
<path d="M358.327 233.693C357.865 233.693 357.404 233.693 356.942 233.677H356.513L356.629 230.382H357.024C369.358 230.761 381.097 226.23 390.1 217.696C399.251 209.047 404.462 197.301 404.808 184.632C405.154 171.782 400.422 159.524 391.502 150.134C382.45 140.611 370.182 135.175 356.942 134.829C343.52 134.499 330.742 139.425 320.948 148.733C311.022 158.173 305.366 170.941 305.036 184.714C304.888 190.793 305.795 196.823 307.74 202.606L304.624 203.644C302.547 197.499 301.59 191.09 301.739 184.632C302.101 169.986 308.103 156.394 318.672 146.345C329.093 136.443 342.712 131.155 357.008 131.55C371.122 131.913 384.197 137.712 393.86 147.877C403.39 157.91 408.435 170.991 408.073 184.731C407.71 198.273 402.12 210.843 392.343 220.102C383.043 228.916 370.99 233.71 358.31 233.71L358.327 233.693Z" fill="#231F20"/>
<path d="M358.327 225.456C357.866 225.456 357.387 225.456 356.926 225.44C355.079 225.374 353.216 225.192 351.402 224.879L351.963 221.65C353.644 221.93 355.359 222.112 357.041 222.178C367.165 222.524 376.827 218.866 384.28 211.881C391.865 204.78 396.234 195.093 396.564 184.632C396.91 173.973 393.035 163.791 385.665 155.949C378.163 147.976 367.956 143.412 356.942 143.066C345.714 142.72 335.013 146.806 326.785 154.566C318.425 162.44 313.627 173.149 313.297 184.731C313.149 190.019 313.94 195.241 315.672 200.266L312.572 201.337C310.709 195.95 309.851 190.332 310.016 184.632C310.379 172.193 315.54 160.661 324.542 152.177C333.413 143.824 344.972 139.425 357.058 139.788C368.962 140.15 379.977 145.093 388.072 153.692C396.036 162.16 400.224 173.182 399.862 184.714C399.499 196.065 394.767 206.56 386.539 214.253C378.789 221.502 368.83 225.456 358.344 225.456H358.327Z" fill="#231F20"/>
<path d="M358.261 217.219C357.816 217.219 357.354 217.219 356.909 217.186C353.644 217.054 350.429 216.428 347.362 215.324L348.467 212.227C351.22 213.215 354.122 213.776 357.057 213.907C364.823 214.253 372.655 211.37 378.459 206.016C384.395 200.546 387.99 192.737 388.319 184.582C388.649 176.246 385.549 167.926 379.828 161.732C373.974 155.406 365.631 151.6 356.925 151.271C348.038 150.941 339.167 154.252 332.605 160.365C325.795 166.691 321.871 175.34 321.541 184.698C321.343 190.513 322.58 196.378 325.152 201.634L322.201 203.083C319.398 197.334 318.029 190.942 318.243 184.582C318.606 174.335 322.91 164.879 330.363 157.959C337.568 151.271 347.28 147.63 357.041 147.992C366.604 148.355 375.788 152.539 382.235 159.491C388.55 166.312 391.963 175.505 391.601 184.698C391.238 193.709 387.264 202.359 380.685 208.405C374.585 214.023 366.472 217.186 358.261 217.186V217.219Z" fill="#231F20"/>
<path d="M358.261 208.998C357.799 208.998 357.338 208.998 356.876 208.965C350.561 208.602 344.576 205.719 340.437 201.057C336.43 196.527 334.336 190.53 334.716 184.582C335.078 178.816 337.749 173.363 342.036 169.623C346.191 165.999 351.666 164.137 357.074 164.516C362.301 164.879 367.231 167.333 370.594 171.238C373.843 175.011 375.475 179.953 375.079 184.813C374.7 189.492 372.474 193.891 368.946 196.856C365.565 199.706 361.13 201.123 356.81 200.728C352.671 200.349 348.797 198.322 346.224 195.176C343.751 192.177 342.564 188.273 342.96 184.5C343.339 180.892 345.153 177.581 347.923 175.373C350.544 173.281 353.925 172.325 357.173 172.737C360.24 173.132 363.026 174.731 364.84 177.119C366.538 179.376 367.264 182.226 366.835 184.912C366.439 187.432 365.038 189.69 363.01 191.09C361.114 192.391 358.789 192.886 356.629 192.424C354.634 191.996 352.902 190.793 351.913 189.113C350.99 187.564 350.759 185.752 351.286 184.138C351.765 182.655 352.82 181.485 354.172 180.925C355.425 180.414 356.794 180.513 357.849 181.189C358.888 181.848 359.465 182.984 359.333 184.105C359.184 185.34 358.162 186.279 356.975 186.279V183.001C356.464 183.001 356.118 183.363 356.068 183.726C356.052 183.874 356.085 183.973 356.118 183.989C355.969 183.89 355.705 183.857 355.409 183.989C354.963 184.171 354.601 184.599 354.419 185.143C354.188 185.867 354.304 186.708 354.749 187.449C355.277 188.339 356.216 188.981 357.321 189.212C358.607 189.492 359.992 189.179 361.147 188.388C362.449 187.498 363.339 186.032 363.603 184.385C363.9 182.556 363.389 180.628 362.235 179.08C360.965 177.383 358.97 176.263 356.777 175.983C354.403 175.686 351.929 176.394 349.984 177.927C347.906 179.574 346.538 182.095 346.241 184.83C345.928 187.746 346.851 190.744 348.764 193.083C350.792 195.555 353.842 197.153 357.123 197.449C360.586 197.779 364.131 196.625 366.852 194.335C369.721 191.93 371.534 188.355 371.831 184.533C372.144 180.53 370.792 176.46 368.121 173.363C365.318 170.118 361.229 168.075 356.86 167.778C352.309 167.449 347.708 169.03 344.213 172.078C340.585 175.258 338.31 179.887 338.013 184.78C337.683 189.854 339.481 194.994 342.91 198.882C346.472 202.902 351.633 205.373 357.074 205.686C362.696 205.999 368.368 204.006 372.639 200.2C377.041 196.263 379.745 190.579 380.059 184.582C380.389 178.421 378.163 172.21 373.958 167.564C369.638 162.786 363.405 159.854 356.876 159.541C350.149 159.195 343.421 161.65 338.392 166.23C333.215 170.925 330.066 177.679 329.753 184.747C329.538 189.327 330.511 193.956 332.556 198.108L329.604 199.558C327.329 194.912 326.24 189.739 326.471 184.599C326.834 176.675 330.379 169.08 336.183 163.808C341.855 158.651 349.44 155.9 357.041 156.262C364.428 156.625 371.485 159.936 376.398 165.373C381.18 170.661 383.703 177.729 383.34 184.764C382.977 191.617 379.877 198.125 374.815 202.639C370.248 206.724 364.279 208.998 358.245 208.998H358.261Z" fill="#231F20"/>
<path d="M209.106 300.679C183.483 267.615 169.551 226.412 169.847 184.648V183.1L173.145 183.149V184.665C172.832 225.687 186.534 266.181 211.712 298.67L209.106 300.679Z" fill="#231F20"/>
<path d="M200.137 90.1989L197.334 88.4855C197.911 87.5465 198.505 86.6074 199.098 85.6684L201.868 87.4312C201.291 88.3537 200.698 89.2763 200.137 90.1989Z" fill="#231F20"/>
<path d="M203.649 84.6799L200.912 82.8677C202.132 81.0225 203.401 79.1773 204.687 77.3981L207.359 79.3091C206.105 81.0719 204.852 82.8841 203.649 84.6799Z" fill="#231F20"/>
<path d="M209.271 76.6732L206.633 74.7127C209.271 71.1706 212.058 67.678 214.943 64.3336L217.433 66.4754C214.597 69.7703 211.86 73.197 209.271 76.6732Z" fill="#231F20"/>
<path d="M235.851 47.9413L233.691 45.4701C255.406 26.5407 281.639 12.7349 309.538 5.56845L310.362 8.74806C282.958 15.7828 257.187 29.3414 235.851 47.9413Z" fill="#231F20"/>
<path d="M425.666 8.15497C422.649 6.95231 419.549 5.81556 416.465 4.77766L417.521 1.66394C420.653 2.71832 423.819 3.88802 426.886 5.10715L425.682 8.15497H425.666Z" fill="#231F20"/>
<path d="M443.49 16.3099C441.56 15.305 439.598 14.3165 437.636 13.3939L439.054 10.4285C441.049 11.384 443.044 12.389 445.007 13.4104L443.49 16.3264V16.3099Z" fill="#231F20"/>
<path d="M543.196 157.679C537.672 117.728 519.007 79.8858 490.614 51.121C478.347 38.6991 464.43 28.0399 449.228 19.4237L450.844 16.5735C466.31 25.3381 480.474 36.1784 492.939 48.8145C521.827 78.0735 540.821 116.575 546.427 157.234L543.179 157.679H543.196Z" fill="#231F20"/>
<path d="M205.116 308.917C176.74 273.826 161.29 229.69 161.587 184.648C161.587 183.989 161.587 183.347 161.603 182.688L164.884 182.754C164.884 183.396 164.868 184.039 164.868 184.681C164.571 228.965 179.757 272.359 207.655 306.857L205.1 308.917H205.116Z" fill="#231F20"/>
<path d="M165.874 166.46L162.609 166.131C162.823 163.956 163.104 161.732 163.4 159.524L166.649 159.969C166.352 162.144 166.088 164.319 165.874 166.46Z" fill="#231F20"/>
<path d="M187.803 95.0919L184.918 93.5268C191.217 81.8298 198.752 70.7588 207.309 60.5939L209.816 62.7027C201.406 72.6863 194.003 83.5761 187.803 95.0754V95.0919Z" fill="#231F20"/>
<path d="M235.406 37.5458L233.328 35.0087C252.834 19.1436 274.896 7.36419 298.936 0.0164795L299.892 3.14667C276.264 10.3791 254.565 21.9608 235.406 37.5458Z" fill="#231F20"/>
<path d="M552.726 169.887C549.494 123.033 529.51 78.782 496.434 45.3054C487.052 35.7995 476.648 27.2162 465.535 19.8026L467.365 17.0678C478.676 24.6132 489.245 33.3283 498.775 42.9825C532.395 77.0192 552.726 122.012 556.007 169.656L552.726 169.887Z" fill="#231F20"/>
<path d="M198.735 314.139C169.171 277.582 153.046 231.601 153.359 184.665C153.359 182.589 153.425 180.497 153.491 178.421L156.772 178.536C156.69 180.579 156.657 182.622 156.64 184.665C156.343 230.843 172.189 276.099 201.291 312.063L198.735 314.123V314.139Z" fill="#231F20"/>
<path d="M157.679 165.505L154.415 165.175C154.645 162.984 154.909 160.776 155.206 158.585L158.454 159.03C158.157 161.188 157.91 163.347 157.679 165.521V165.505Z" fill="#231F20"/>
<path d="M174.794 102.72L171.81 101.352C172.271 100.347 172.733 99.3424 173.211 98.3374L176.179 99.7542C175.701 100.743 175.256 101.731 174.794 102.72Z" fill="#231F20"/>
<path d="M177.614 96.8217L174.679 95.3555C183.599 77.464 195.091 61.0387 208.826 46.5245L211.217 48.7815C197.697 63.0651 186.402 79.2268 177.63 96.8217H177.614Z" fill="#231F20"/>
<path d="M220.5 39.5722L218.274 37.1669C219.082 36.409 219.906 35.6677 220.731 34.9263L222.924 37.3646C222.116 38.0895 221.308 38.8308 220.5 39.5722Z" fill="#231F20"/>
<path d="M238.159 25.025L236.213 22.3726C248.266 13.5422 261.342 6.02972 275.044 0.0658875L276.363 3.08075C262.875 8.94574 250.031 16.3264 238.159 25.025Z" fill="#231F20"/>
<path d="M564.696 186.658L561.415 186.609C561.415 185.966 561.432 185.307 561.432 184.665C561.778 130.002 540.772 78.436 502.271 39.4733C493.713 30.8077 484.315 22.8669 474.373 15.8651L476.269 13.1797C486.376 20.2968 495.923 28.3694 504.629 37.1669C543.739 76.7556 565.092 129.145 564.746 184.681C564.746 185.34 564.746 185.999 564.729 186.658H564.696Z" fill="#231F20"/>
<path d="M193.673 320.976C162.049 282.673 144.785 234.254 145.098 184.665V182.902L148.396 182.951V184.698C148.066 233.529 165.049 281.19 196.196 318.9L193.657 320.993L193.673 320.976Z" fill="#231F20"/>
<path d="M149.995 160.117L146.73 159.706C146.862 158.602 147.011 157.514 147.176 156.411L150.424 156.872C150.275 157.943 150.127 159.03 149.995 160.117Z" fill="#231F20"/>
<path d="M164.142 106.542L161.108 105.29C170.029 83.6914 182.379 63.8724 197.828 46.3598L200.301 48.5344C185.099 65.7834 172.947 85.2895 164.159 106.558L164.142 106.542Z" fill="#231F20"/>
<path d="M202.462 46.0962L200.038 43.8886C202.577 41.1043 205.215 38.3531 207.903 35.7006C209.931 33.6907 212.025 31.7138 214.136 29.7862L216.345 32.208C214.268 34.0861 212.207 36.0466 210.211 38.0236C207.573 40.6266 204.968 43.3284 202.478 46.0797L202.462 46.0962Z" fill="#231F20"/>
<path d="M236.758 15.8816L234.878 13.1962C241.209 8.76453 247.838 4.62938 254.615 0.922577L256.198 3.80565C249.536 7.46303 242.99 11.5323 236.758 15.8981V15.8816Z" fill="#231F20"/>
<path d="M569.66 180.167C568.835 124.993 546.971 72.9664 508.108 33.6413C497.226 22.6362 485.123 12.8008 472.13 4.39873L473.911 1.64746C487.102 10.1813 499.386 20.165 510.433 31.3348C549.906 71.253 572.1 124.087 572.941 180.118L569.66 180.167Z" fill="#231F20"/>
<path d="M189.37 328.654C177.168 314.304 166.847 298.422 158.668 281.47L161.62 280.053C169.666 296.759 179.84 312.409 191.86 326.545L189.353 328.67L189.37 328.654Z" fill="#231F20"/>
<path d="M149.699 260.036C141.454 237.005 137.151 212.919 136.871 188.487L140.152 188.454C140.432 212.54 144.686 236.247 152.798 258.949L149.699 260.053V260.036Z" fill="#231F20"/>
<path d="M141.817 159.08L138.552 158.668C138.833 156.477 139.129 154.285 139.476 152.094L142.724 152.605C142.394 154.763 142.081 156.921 141.817 159.08Z" fill="#231F20"/>
<path d="M150.193 120.809L147.061 119.82C156.162 91.0391 170.787 64.9103 190.557 42.1422L193.03 44.3004C173.557 66.7225 159.147 92.4724 150.177 120.809H150.193Z" fill="#231F20"/>
<path d="M195.207 41.8292L192.767 39.6381C195.751 36.3102 198.884 33.0153 202.066 29.8686C205.149 26.8208 208.381 23.8224 211.646 20.9723L213.806 23.4435C210.591 26.2606 207.425 29.2096 204.374 32.208C201.225 35.3052 198.142 38.5507 195.207 41.8292Z" fill="#231F20"/>
<path d="M223.897 15.1238L221.885 12.5208C227.112 8.46799 232.603 4.61291 238.176 1.05438L239.94 3.82213C234.449 7.33124 229.041 11.1204 223.897 15.1073V15.1238Z" fill="#231F20"/>
<path d="M581.053 191.848L577.772 191.716C577.854 189.344 577.92 186.971 577.92 184.648C578.267 125.587 555.545 69.8856 513.929 27.8093C506.509 20.3133 498.479 13.2786 490.07 6.91937L492.048 4.2999C500.589 10.758 508.735 17.8915 516.253 25.5028C558.48 68.2052 581.548 124.73 581.201 184.665C581.201 187.021 581.136 189.426 581.037 191.848H581.053Z" fill="#231F20"/>
<path d="M186.418 337.83C176.872 327.088 168.298 315.408 160.944 303.085L163.763 301.404C171.018 313.546 179.46 325.079 188.875 335.655L186.418 337.83Z" fill="#231F20"/>
<path d="M136.425 245.193C136.145 244.122 135.865 243.051 135.584 241.98L138.767 241.173C139.031 242.227 139.311 243.282 139.591 244.336L136.425 245.193Z" fill="#231F20"/>
<path d="M134.793 238.751C133.013 231.239 131.595 223.561 130.572 215.917L133.82 215.489C134.826 223.018 136.211 230.596 137.976 237.993L134.777 238.751H134.793Z" fill="#231F20"/>
<path d="M128.709 192.77C128.643 190.563 128.61 188.355 128.61 186.131H131.891C131.891 188.306 131.924 190.497 131.99 192.671L128.709 192.77Z" fill="#231F20"/>
<path d="M134.249 153.528L131 153.05C131.165 151.963 131.33 150.859 131.512 149.771L134.76 150.299C134.595 151.369 134.414 152.457 134.265 153.528H134.249Z" fill="#231F20"/>
<path d="M135.881 143.857L132.649 143.247C138.091 114.779 148.742 87.9584 164.324 63.5264L167.094 65.2892C151.743 89.3587 141.223 115.801 135.865 143.857H135.881Z" fill="#231F20"/>
<path d="M182.444 44.0863L179.905 42.0105C180.598 41.1538 181.307 40.2971 182.016 39.4569L184.539 41.5656C183.83 42.4058 183.137 43.2461 182.444 44.0863Z" fill="#231F20"/>
<path d="M193.245 31.8126L190.854 29.5556C192.602 27.7104 194.416 25.8488 196.246 24.053C199.131 21.2029 202.149 18.3858 205.166 15.7004L207.342 18.1551C204.358 20.8075 201.39 23.5753 198.554 26.3925C196.757 28.1717 194.976 29.9839 193.245 31.8126Z" fill="#231F20"/>
<path d="M209.799 15.9969L207.656 13.5092C213.08 8.83044 218.802 4.3658 224.655 0.230652L226.552 2.91603C220.781 7.00175 215.142 11.4005 209.799 16.0134V15.9969Z" fill="#231F20"/>
<path d="M584.45 155.34C578.267 105.273 555.298 57.925 519.766 22.0102C516.781 18.9953 513.698 16.0463 510.582 13.2292L512.791 10.7909C515.957 13.6575 519.09 16.6559 522.107 19.7037C558.151 56.1293 581.465 104.153 587.715 154.944L584.45 155.34Z" fill="#231F20"/>
<path d="M201.983 364.782C201.143 364.058 200.318 363.333 199.494 362.591L201.687 360.153C202.495 360.878 203.319 361.603 204.143 362.311L201.983 364.782Z" fill="#231F20"/>
<path d="M187.523 351.108C176.74 340.021 166.995 327.83 158.569 314.864L161.323 313.085C169.633 325.869 179.229 337.896 189.864 348.835L187.507 351.125L187.523 351.108Z" fill="#231F20"/>
<path d="M120.366 186.23V184.665C120.399 179.673 120.58 174.632 120.926 169.656L124.208 169.887C123.861 174.796 123.68 179.772 123.647 184.681V186.23H120.366Z" fill="#231F20"/>
<path d="M129.451 134.302L126.252 133.577C132.171 107.563 142.378 82.9171 156.574 60.3468L159.361 62.0931C145.362 84.3504 135.288 108.651 129.451 134.302Z" fill="#231F20"/>
<path d="M172.502 43.3449L169.914 41.335C173.294 36.9857 176.872 32.6858 180.549 28.6001L182.989 30.7912C179.361 34.8275 175.849 39.0615 172.502 43.3449Z" fill="#231F20"/>
<path d="M185.182 28.3529L182.758 26.1289C185.231 23.4435 187.803 20.7911 190.392 18.221C196.427 12.2572 202.857 6.57341 209.486 1.30151L211.53 3.87156C204.984 9.06109 198.653 14.679 192.7 20.5604C190.145 23.081 187.605 25.717 185.165 28.3529H185.182Z" fill="#231F20"/>
<path d="M592.776 155.554C586.758 104.548 563.823 56.0139 528.208 18.88L530.582 16.6065C566.692 54.2511 589.924 103.461 596.041 155.175L592.776 155.554Z" fill="#231F20"/>
<path d="M194.3 369C190.474 365.59 186.715 362.031 183.104 358.39C176.327 351.553 169.897 344.239 163.978 336.644L166.566 334.634C172.403 342.113 178.751 349.329 185.429 356.084C188.991 359.675 192.7 363.201 196.476 366.562L194.283 369.017L194.3 369Z" fill="#231F20"/>
<path d="M115.502 179.162L112.22 179.063C112.435 171.353 113.028 163.561 113.968 155.916L117.233 156.328C116.293 163.874 115.716 171.551 115.502 179.162Z" fill="#231F20"/>
<path d="M121.124 133.758L117.909 133.05C123.927 105.916 134.447 80.2152 149.154 56.6564L151.941 58.3863C137.431 81.6321 127.043 106.987 121.107 133.758H121.124Z" fill="#231F20"/>
<path d="M159.196 47.48L156.508 45.6019C161.57 38.386 167.094 31.3678 172.931 24.7614L175.404 26.9361C169.666 33.4601 164.208 40.3794 159.212 47.4965L159.196 47.48Z" fill="#231F20"/>
<path d="M179.774 22.0596L177.366 19.8191C178.125 19.0118 178.883 18.2045 179.642 17.3973L182.016 19.6708C181.257 20.4616 180.516 21.2524 179.774 22.0596Z" fill="#231F20"/>
<path d="M184.308 17.3314L181.966 15.0414C182.824 14.1517 183.698 13.2786 184.588 12.4219C188.413 8.6492 192.42 4.94239 196.476 1.41681L198.62 3.90449C194.613 7.38064 190.656 11.0216 186.88 14.7613C186.006 15.618 185.149 16.4747 184.291 17.3478L184.308 17.3314Z" fill="#231F20"/>
<path d="M600.79 153.033C594.508 102.604 573.139 56.0139 538.958 18.3034L541.398 16.0958C576.024 54.317 597.69 101.533 604.054 152.638L600.79 153.05V153.033Z" fill="#231F20"/>
<path d="M107.406 174.928L104.125 174.78C104.322 170.398 104.636 165.933 105.064 161.551L108.329 161.864C107.917 166.197 107.604 170.595 107.406 174.928Z" fill="#231F20"/>
<path d="M112.913 132.786L109.698 132.094C118.189 93.1973 136.063 56.3764 161.34 25.6511L163.879 27.7434C138.915 58.0733 121.289 94.3999 112.913 132.786Z" fill="#231F20"/>
<path d="M165.973 25.2227L163.466 23.0975C168.297 17.3973 173.425 11.8288 178.751 6.5734L179.576 5.74966L181.867 8.08907L181.043 8.89633C175.8 14.0859 170.721 19.5719 165.956 25.2063L165.973 25.2227Z" fill="#231F20"/>
<path d="M601.696 115.652C592.281 81.6815 576.238 50.5773 553.995 23.1964L556.551 21.1206C579.074 48.8475 595.332 80.3636 604.862 114.779L601.696 115.652Z" fill="#231F20"/>
<path d="M99.3923 170.348L96.1111 170.151C96.3749 165.752 96.7541 161.304 97.2488 156.938L100.513 157.3C100.035 161.617 99.6561 165.999 99.3923 170.348Z" fill="#231F20"/>
<path d="M103.449 137.877L100.217 137.267C109.154 90.2483 130.852 46.6398 162.939 11.1698L165.379 13.3774C133.688 48.4026 112.27 91.451 103.449 137.877Z" fill="#231F20"/>
<path d="M91.2307 168.767L87.9495 168.553C91.4945 113.824 111.347 62.1919 145.362 19.2095L147.934 21.2523C114.347 63.7076 94.7427 114.713 91.2307 168.783V168.767Z" fill="#231F20"/>
<path d="M149.996 18.6823L147.44 16.623C148.825 14.9096 150.243 13.2127 151.677 11.5158L154.184 13.641C152.766 15.305 151.364 16.9854 149.996 18.6823Z" fill="#231F20"/>
<path d="M83.0854 166.954L79.8042 166.724C83.5965 112.127 103.234 60.3632 136.59 17.0183L139.196 19.0118C106.235 61.846 86.8283 113 83.0689 166.938L83.0854 166.954Z" fill="#231F20"/>
<path d="M141.224 16.4418L138.651 14.4154C140.02 12.6855 141.405 10.9557 142.823 9.25879L145.362 11.3511C143.961 13.0315 142.592 14.7284 141.24 16.4418H141.224Z" fill="#231F20"/>
<path d="M75.8799 155.175L72.6152 154.813C77.5618 109.771 93.4072 65.9976 118.453 28.2541L121.19 30.0663C96.441 67.3815 80.7605 110.644 75.8799 155.175Z" fill="#231F20"/>
<path d="M123.004 27.348L120.283 25.5028C122.13 22.7845 124.059 20.0497 126.021 17.3808L128.676 19.3248C126.747 21.9772 124.834 24.6791 123.004 27.348Z" fill="#231F20"/>
<path d="M67.817 153.05L64.5522 152.671C64.7996 150.48 65.0799 148.289 65.3767 146.098L68.6249 146.542C68.3281 148.701 68.0643 150.875 67.817 153.05Z" fill="#231F20"/>
<path d="M69.5978 140.068L66.3496 139.557C72.879 98.7822 87.5867 60.5774 110.093 25.9641L112.847 27.7434C90.6041 61.9613 76.0448 99.7542 69.5813 140.068H69.5978Z" fill="#231F20"/>
<path d="M61.0898 141.056L57.8416 140.562C64.0412 99.7872 78.2542 61.3682 100.068 26.376L102.855 28.1058C81.2881 62.7191 67.2235 100.726 61.0898 141.056Z" fill="#231F20"/>
<path d="M53.637 135.455L50.4053 134.911C50.5866 133.824 50.768 132.737 50.9659 131.649L54.1976 132.226C53.9998 133.297 53.8184 134.384 53.637 135.455Z" fill="#231F20"/>
<path d="M56.0773 122.572L52.8621 121.896C59.9686 88.2549 72.5328 56.2281 90.1919 26.7219L93.0114 28.4023C75.5337 57.5955 63.1014 89.2763 56.0773 122.572Z" fill="#231F20"/>
<path d="M51.1801 107.366L47.9978 106.542C48.2781 105.471 48.5584 104.4 48.8387 103.346L52.0045 104.202C51.7242 105.257 51.4439 106.311 51.1636 107.366H51.1801Z" fill="#231F20"/>
<path d="M64.5522 66.9531L61.5183 65.7175C67.3387 51.4505 74.2639 37.4799 82.0959 24.2013L84.9319 25.8653C77.1823 38.9956 70.3231 52.8179 64.5522 66.9531Z" fill="#231F20"/>
<path d="M60.5292 55.3714L57.5283 54.0534C61.9802 43.9874 66.9927 34.0367 72.4174 24.4814L75.2699 26.1124C69.8947 35.5688 64.9316 45.4207 60.5292 55.3879V55.3714Z" fill="#231F20"/>
<path d="M52.6642 52.7684L49.6633 51.4504C54.0822 41.3844 59.0617 31.4172 64.4535 21.8289L67.3225 23.4435C61.9802 32.9329 57.0502 42.8012 52.6807 52.7684H52.6642Z" fill="#231F20"/>
<path d="M43.5296 53.1308L40.5122 51.8458C44.387 42.7353 48.6905 33.6907 53.3402 24.9591L56.2422 26.4913C51.6419 35.1405 47.3714 44.1027 43.5296 53.1144V53.1308Z" fill="#231F20"/>
<path d="M32.0041 59.556L28.9373 58.3698C32.9275 48.1226 37.4618 37.9577 42.4083 28.1388L45.3433 29.605C40.4462 39.3415 35.9613 49.4076 32.0041 59.556Z" fill="#231F20"/>
<path d="M21.8966 62.9663L18.8132 61.8295C22.2263 52.5543 26.0846 43.2955 30.2562 34.3333L33.2406 35.7171C29.102 44.597 25.2932 53.7734 21.9131 62.9663H21.8966Z" fill="#231F20"/>
<path d="M13.0259 63.2793L9.92603 62.1755C10.3053 61.1376 10.668 60.0996 11.0472 59.0617L14.1306 60.1985C13.7513 61.2199 13.3721 62.2578 13.0094 63.2793H13.0259Z" fill="#231F20"/>
<path d="M15.2849 57.1177L12.218 55.9645C13.7679 51.8623 15.4168 47.7271 17.1151 43.6744L20.149 44.9429C18.4671 48.9628 16.8183 53.0649 15.2849 57.1342V57.1177Z" fill="#231F20"/>
<path d="M22.7375 38.9132L19.7366 37.5952C20.1818 36.5903 20.6269 35.5853 21.0886 34.5804L24.0895 35.9313C23.6443 36.9362 23.1991 37.9247 22.754 38.9297L22.7375 38.9132Z" fill="#231F20"/>
<path d="M3.11632 66.6731L0 65.6187C0.346257 64.5808 0.709003 63.5264 1.07175 62.4885L4.17158 63.5594C3.80883 64.5973 3.46257 65.6352 3.11632 66.6566V66.6731Z" fill="#231F20"/>
</g>
<defs>
<clipPath id="clip0_408_1398">
<rect width="554" height="369" fill="white"/>
</clipPath>
</defs>
</svg>
