<svg width="40" height="66" viewBox="0 0 40 66" fill="none" xmlns="http://www.w3.org/2000/svg">
<g clip-path="url(#clip0_508_16)">
<path d="M38.6922 55.2309L34.9929 51.5336C33.551 49.8967 32.718 47.8126 32.6346 45.6332V44.8014C32.7491 42.6357 33.6033 40.5747 35.0546 38.9626L38.754 35.2652C39.3904 34.621 39.7474 33.7521 39.7474 32.8466C39.7474 31.9411 39.3905 31.0722 38.7539 30.4279L35.0546 26.7306C33.5917 25.1399 32.7209 23.0946 32.5884 20.9381V20.1062C32.7029 17.9406 33.5571 15.8797 35.0084 14.2674L38.6922 10.5856C39.334 9.94406 39.6946 9.074 39.6947 8.16684C39.6946 7.25969 39.3341 6.38968 38.6923 5.74818L34.361 1.41918C33.7192 0.77776 32.8487 0.417338 31.9411 0.417358C31.0334 0.417378 30.1629 0.777767 29.521 1.41925L25.1898 5.74818C24.548 6.38967 24.1874 7.25973 24.1874 8.16688C24.1874 9.07403 24.548 9.94412 25.1897 10.5856L28.8737 14.2675C30.3581 15.8934 31.2301 17.9848 31.3399 20.1833V21.0151C31.2202 23.1796 30.3667 25.2388 28.92 26.8538L25.2206 30.5512C24.5841 31.1954 24.2272 32.0645 24.2272 32.9698C24.2272 33.8752 24.5841 34.7442 25.2206 35.3885L28.9199 39.0858C30.3403 40.6951 31.1765 42.7357 31.2937 44.8783V45.7103C31.1739 47.8747 30.3204 49.9339 28.8737 51.549L25.1744 55.2463C24.5378 55.8906 24.1809 56.7595 24.1809 57.6649C24.1809 58.5704 24.5379 59.4394 25.1743 60.0836L29.521 64.4279C30.1657 65.0642 31.0351 65.421 31.941 65.421C32.8469 65.4209 33.7163 65.0643 34.361 64.428L38.7077 60.0836C39.3468 59.4367 39.704 58.5633 39.7011 57.6541C39.6982 56.7449 39.3355 55.8738 38.6922 55.2309Z" fill="white"/>
<path d="M14.6422 30.56L10.0623 25.9825C8.64917 24.5701 6.46102 24.467 5.17499 25.7524L1.00736 29.9178C-0.278675 31.2031 -0.175523 33.3901 1.23768 34.8025L5.81751 39.3799C7.23071 40.7923 9.41879 40.8955 10.7048 39.6102L14.8724 35.4447C16.1585 34.1594 16.0554 31.9724 14.6422 30.56Z" fill="white"/>
<path d="M26.7819 42.1966L23.063 38.4797C21.5963 36.8538 20.7218 34.7856 20.5854 32.6201L20.5671 32.3274C20.6664 30.1509 21.51 28.0893 22.9571 26.4861L26.6169 22.8283C27.2258 22.2043 27.5656 21.3646 27.5653 20.4841C27.565 19.6037 27.2247 18.7504 26.6153 18.1021L22.1652 13.6543C21.5172 13.0067 20.6436 12.6378 19.7365 12.6287C18.8294 12.6195 17.9631 12.9708 17.3282 13.6055L13.0432 17.8881C12.4083 18.5228 12.0567 19.3886 12.0658 20.2953C12.075 21.202 12.4442 22.075 13.0921 22.7225L16.8265 26.455C18.2857 28.0855 19.1591 30.151 19.304 32.3146L19.2916 32.607C19.199 34.7702 18.3661 36.8212 16.932 38.4178L13.2875 42.0603C12.9718 42.3758 12.723 42.7519 12.5553 43.1668C12.3876 43.5819 12.3043 44.0275 12.3103 44.4784C12.3162 44.929 12.4114 45.376 12.5902 45.7934C12.769 46.2108 13.0278 46.5903 13.352 46.9103L17.7088 51.2649C18.3567 51.9123 19.2303 52.2813 20.1374 52.2905C21.0445 52.2997 21.9109 51.9483 22.5458 51.3136L26.8308 47.031C27.4657 46.3965 27.8172 45.5305 27.8081 44.6239C27.7989 43.7173 27.4298 42.8441 26.7819 42.1966Z" fill="white"/>
</g>
<defs>
<clipPath id="clip0_508_16">
<rect width="40" height="65.9649" fill="white"/>
</clipPath>
</defs>
</svg>
