<svg width="25" height="40" viewBox="0 0 25 40" fill="none" xmlns="http://www.w3.org/2000/svg">
<g clip-path="url(#clip0_508_9)">
<path d="M23.4622 33.4912L21.2191 31.2492C20.3447 30.2566 19.8396 28.9928 19.789 27.6713V27.1669C19.8585 25.8537 20.3764 24.6039 21.2565 23.6263L23.4997 21.3843C23.8856 20.9937 24.1021 20.4668 24.1021 19.9177C24.1021 19.3686 23.8857 18.8417 23.4997 18.4511L21.2565 16.2091C20.3694 15.2445 19.8414 14.0043 19.761 12.6966V12.1922C19.8304 10.8789 20.3484 9.62925 21.2285 8.65161L23.4622 6.41901C23.8514 6.03 24.0701 5.50241 24.0701 4.95233C24.0701 4.40225 23.8515 3.87469 23.4623 3.48569L20.8359 0.860662C20.4467 0.471715 19.9188 0.253162 19.3685 0.253174C18.8181 0.253186 18.2902 0.471719 17.901 0.860704L15.2746 3.48569C14.8854 3.87468 14.6668 4.40227 14.6668 4.95235C14.6668 5.50243 14.8854 6.03004 15.2746 6.41901L17.5085 8.65167C18.4086 9.63755 18.9374 10.9058 19.0039 12.2389V12.7433C18.9314 14.0558 18.4138 15.3045 17.5366 16.2838L15.2933 18.5258C14.9073 18.9165 14.6909 19.4434 14.6909 19.9924C14.6909 20.5414 14.9073 21.0684 15.2933 21.4591L17.5365 23.7011C18.3978 24.6769 18.9049 25.9143 18.9759 27.2136V27.718C18.9033 29.0305 18.3857 30.2792 17.5085 31.2585L15.2653 33.5005C14.8793 33.8912 14.6628 34.4181 14.6628 34.9671C14.6628 35.5162 14.8793 36.0431 15.2652 36.4338L17.901 39.0681C18.2919 39.4539 18.8191 39.6703 19.3684 39.6703C19.9178 39.6702 20.4449 39.454 20.8359 39.0682L23.4716 36.4338C23.8592 36.0415 24.0758 35.5119 24.074 34.9606C24.0723 34.4092 23.8523 33.881 23.4622 33.4912Z" fill="#313139"/>
<path d="M8.87871 18.5311L6.10153 15.7554C5.24462 14.8989 3.91776 14.8364 3.13793 15.6159L0.610752 18.1417C-0.169077 18.9211 -0.106528 20.2472 0.750414 21.1037L3.52754 23.8793C4.38449 24.7358 5.7113 24.7984 6.49113 24.019L9.01829 21.4931C9.79816 20.7137 9.73565 19.3876 8.87871 18.5311Z" fill="#313139"/>
<path d="M16.2401 25.5873L13.985 23.3334C13.0956 22.3475 12.5654 21.0934 12.4827 19.7802L12.4716 19.6028C12.5318 18.283 13.0433 17.0329 13.9208 16.0607L16.1401 13.8427C16.5093 13.4643 16.7153 12.9551 16.7151 12.4212C16.715 11.8873 16.5086 11.3699 16.1391 10.9768L13.4406 8.2797C13.0477 7.88703 12.5179 7.66334 11.9679 7.65782C11.4178 7.65225 10.8925 7.86528 10.5075 8.25012L7.90919 10.847C7.5242 11.2319 7.31099 11.7569 7.31651 12.3067C7.32209 12.8565 7.54597 13.3859 7.93884 13.7785L10.2033 16.0418C11.0882 17.0305 11.6178 18.283 11.7056 19.595L11.6981 19.7723C11.642 21.0841 11.1369 22.3278 10.2673 23.2959L8.05733 25.5046C7.86589 25.6959 7.71503 25.924 7.61334 26.1756C7.51164 26.4273 7.46113 26.6975 7.46477 26.9709C7.46835 27.2442 7.52608 27.5152 7.6345 27.7683C7.74292 28.0214 7.89985 28.2516 8.09644 28.4456L10.7383 31.0861C11.1312 31.4787 11.6609 31.7025 12.211 31.7081C12.761 31.7136 13.2864 31.5005 13.6714 31.1157L16.2698 28.5188C16.6547 28.134 16.8679 27.6089 16.8624 27.0592C16.8568 26.5094 16.633 25.9799 16.2401 25.5873Z" fill="#313139"/>
</g>
<defs>
<clipPath id="clip0_508_9">
<rect width="24.2553" height="40" fill="white"/>
</clipPath>
</defs>
</svg>
