<svg width="47" height="48" viewBox="0 0 47 48" fill="none" xmlns="http://www.w3.org/2000/svg">
<g clip-path="url(#clip0_509_157)">
<mask id="mask0_509_157" style="mask-type:luminance" maskUnits="userSpaceOnUse" x="-5" y="-2" width="57" height="56">
<path d="M-4.67139 -1.72542H51.9333V53.8782H-4.67139V-1.72542Z" fill="white"/>
</mask>
<g mask="url(#mask0_509_157)">
<path d="M36.876 39.7208C36.876 42.2256 30.9697 44.2559 23.684 44.2559C16.3982 44.2559 10.4919 42.2256 10.4919 39.7208C10.4919 37.2161 16.398 35.185 23.684 35.185C30.97 35.185 36.876 37.2187 36.876 39.7208Z" fill="#A0DCF2"/>
</g>
<mask id="mask1_509_157" style="mask-type:luminance" maskUnits="userSpaceOnUse" x="16" y="38" width="15" height="13">
<path d="M27.2276 39.5499C27.3175 39.2632 27.3324 38.8209 26.4314 39.0212C26.4314 39.0212 23.9694 39.3666 23.852 42.1883L23.7959 47.5942H23.2042L23.1484 42.1883C23.031 39.3669 20.5692 39.0212 20.5692 39.0212C19.6708 38.8209 19.6826 39.2626 19.7725 39.5494C18.8894 38.0723 16.5246 38.2633 16.5246 38.2633C15.7035 38.5509 16.4659 39.0691 16.4659 39.0691C17.7552 39.5293 17.8731 40.9117 17.8731 40.9117V44.8168L18.0094 47.8359C18.3021 49.1807 19.0246 49.9756 19.7332 50.4436L27.2813 50.4351C28.1943 49.8263 29.128 48.6728 29.128 46.4947V40.9117C29.128 40.9117 29.2452 39.5293 30.5353 39.0691C30.5353 39.0691 31.2968 38.5506 30.4763 38.2633C30.4763 38.2633 30.3762 38.2556 30.2098 38.2551C29.5664 38.2551 27.9299 38.3761 27.2281 39.5499M20.1011 45.1154V40.8546C20.1011 40.4383 20.0265 40.0882 19.8986 39.794C20.7476 40.4442 20.8045 42.0735 20.8045 42.0735V47.3918C19.9594 46.8044 20.1011 45.1147 20.1011 45.1147M26.1993 42.0727C26.1993 42.0727 26.2561 40.4432 27.1049 39.7932C26.9773 40.0874 26.9026 40.4375 26.9026 40.8538V45.1149C26.9026 45.1149 27.0441 46.6852 26.1993 47.3319V42.0727Z" fill="white"/>
</mask>
<g mask="url(#mask1_509_157)">
<path d="M36.876 39.7208C36.876 42.2256 30.9697 44.2559 23.684 44.2559C16.3982 44.2559 10.4919 42.2256 10.4919 39.7208C10.4919 37.2161 16.398 35.185 23.684 35.185C30.97 35.185 36.876 37.2187 36.876 39.7208Z" fill="#82BDE7"/>
</g>
<mask id="mask2_509_157" style="mask-type:luminance" maskUnits="userSpaceOnUse" x="-5" y="-2" width="57" height="56">
<path d="M-4.67139 -1.72542H51.9333V53.8782H-4.67139V-1.72542Z" fill="white"/>
</mask>
<g mask="url(#mask2_509_157)">
<path d="M8.61507 26.3853L8.2343 27.6887C8.2343 27.6887 8.13524 28.1598 8.58703 28.2432C9.05874 28.2342 9.02022 27.8004 8.9872 27.6598L8.61507 26.3853Z" fill="#A0DCF2"/>
<path d="M46.9653 20.921L47.0001 20.7516C43.13 19.9914 39.1588 19.9837 36.7536 20.0818C37.1483 18.685 37.2673 17.0776 37.2673 15.2852C37.2673 12.7146 36.284 10.658 34.6878 9.09311C34.9669 8.20886 35.3395 6.24445 34.3157 3.73019C34.3157 3.73019 32.5075 3.16695 28.4256 5.85214C26.8255 5.45931 25.1227 5.26521 23.4172 5.26521C21.5408 5.26521 19.6448 5.49998 17.8765 5.97647C13.661 3.15125 11.8004 3.72993 11.8004 3.72993C10.5855 6.71605 11.3365 8.92218 11.5645 9.47101C10.1368 10.9847 9.26522 12.9164 9.26522 15.2849C9.26522 17.0733 9.47277 18.6773 9.97907 20.0715C7.55581 19.985 3.72897 20.0182 -0.00537109 20.7511L0.0292207 20.9205C3.78321 20.1829 7.63364 20.1572 10.0399 20.2468C10.1512 20.5351 10.2757 20.8131 10.4146 21.086C8.03302 21.1614 3.96692 21.4592 0.0698394 22.5394L0.117534 22.7054C4.04527 21.6173 8.14702 21.3267 10.5055 21.2561C11.9285 23.8613 14.7339 25.5443 19.7248 26.07C19.0162 26.5374 18.2939 27.3324 18.0004 28.6777C17.0353 29.1307 13.9797 30.2382 12.146 27.1409C12.146 27.1409 11.1198 25.2977 9.15542 25.1535C9.15542 25.1535 7.25025 25.1278 9.0236 26.3197C9.0236 26.3197 10.299 26.9099 11.1785 29.1256C11.1785 29.1256 12.3263 32.9084 17.8642 31.6947V35.6024C17.8642 35.6024 17.747 36.9847 16.4569 37.445C16.4569 37.445 15.6948 37.9635 16.5156 38.2508C16.5156 38.2508 20.0914 38.5391 20.0914 35.6598V31.3989C20.0914 31.3989 19.9499 29.7089 20.7945 29.1217V36.1255C20.7945 36.1255 20.7363 37.7954 19.8568 38.4289C19.8568 38.4289 19.2706 39.465 20.5602 39.1775C20.5602 39.1775 23.022 38.832 23.1394 36.0104L23.1955 28.9279H23.7869L23.8433 36.0104C23.9604 38.8318 26.4225 39.1775 26.4225 39.1775C27.7118 39.465 27.1256 38.4289 27.1256 38.4289C26.2464 37.7956 26.1879 36.1255 26.1879 36.1255V29.1871C27.0325 29.8307 26.8913 31.404 26.8913 31.404V35.6649C26.8913 38.544 30.4668 38.2559 30.4668 38.2559C31.2871 37.9684 30.5258 37.4502 30.5258 37.4502C29.2359 36.9868 29.1185 35.6075 29.1185 35.6075V30.0222C29.1185 27.8444 28.1848 26.6906 27.2718 26.0818C32.5916 25.5634 35.1482 23.8752 36.3254 21.252C38.6567 21.3148 42.8522 21.5939 46.8654 22.7065L46.9131 22.5404C42.9227 21.4348 38.7552 21.1488 36.4001 21.0813C36.5117 20.8162 36.609 20.5408 36.6954 20.2576C39.0815 20.1546 43.0708 20.1585 46.9561 20.9217" fill="#292929"/>
<path d="M32.0635 15.1616C33.21 16.1818 33.8806 17.4141 33.8806 18.7411C33.8806 24.9386 29.1772 25.1067 23.376 25.1067C17.5748 25.1067 12.8708 24.2513 12.8708 18.7437C12.8708 17.4252 13.5323 16.2008 14.6646 15.1848C16.553 13.4915 19.7496 14.3881 23.3755 14.3881C26.9872 14.3881 30.1717 13.4824 32.0627 15.1642" fill="#F5CDB5"/>
<path d="M19.8829 19.0595C19.8829 20.7662 18.9044 22.1501 17.6973 22.1501C16.4903 22.1501 15.5112 20.7665 15.5112 19.0595C15.5112 17.3525 16.4903 15.9694 17.6973 15.9694C18.9044 15.9694 19.8829 17.3525 19.8829 19.0595Z" fill="white"/>
<path d="M19.1812 19.0984C19.1812 20.2362 18.526 21.1583 17.7241 21.1583C16.9222 21.1583 16.2671 20.2362 16.2671 19.0984C16.2671 17.9606 16.9191 17.0375 17.7241 17.0375C18.5292 17.0375 19.1812 17.9601 19.1812 19.0984Z" fill="#B1645A"/>
<path d="M31.609 19.0595C31.609 20.7662 30.6304 22.1501 29.4229 22.1501C28.2153 22.1501 27.2373 20.7665 27.2373 19.0595C27.2373 17.3525 28.2161 15.9694 29.4229 15.9694C30.6297 15.9694 31.609 17.3525 31.609 19.0595Z" fill="white"/>
<path d="M30.9073 19.0984C30.9073 20.2363 30.2522 21.1584 29.4503 21.1584C28.6484 21.1584 27.9932 20.2363 27.9932 19.0984C27.9932 17.9606 28.6484 17.0375 29.4503 17.0375C30.2522 17.0375 30.9073 17.9601 30.9073 19.0984ZM23.9533 21.8014C23.9533 22.0979 23.7086 22.3384 23.4067 22.3384C23.1048 22.3384 22.86 22.0979 22.86 21.8014C22.86 21.5048 23.1045 21.2644 23.4067 21.2644C23.7088 21.2644 23.9533 21.5048 23.9533 21.8014ZM22.1333 23.1593C22.1256 23.1379 22.1223 23.1153 22.1235 23.0926C22.1248 23.07 22.1305 23.0478 22.1405 23.0273C22.1504 23.0069 22.1644 22.9885 22.1815 22.9734C22.1987 22.9582 22.2187 22.9465 22.2405 22.939C22.2623 22.9314 22.2854 22.9281 22.3084 22.9293C22.3315 22.9305 22.354 22.9362 22.3749 22.946C22.3957 22.9557 22.4144 22.9694 22.4298 22.9863C22.4452 23.0032 22.4571 23.0229 22.4648 23.0442C22.6053 23.4342 22.9819 23.6963 23.4022 23.6963C23.8226 23.6963 24.1989 23.4342 24.3399 23.0442C24.3476 23.0229 24.3595 23.0032 24.3749 22.9864C24.3903 22.9695 24.409 22.9558 24.4298 22.9461C24.4506 22.9363 24.4732 22.9306 24.4962 22.9294C24.5193 22.9283 24.5423 22.9315 24.5641 22.9391C24.5858 22.9466 24.6058 22.9583 24.623 22.9735C24.6401 22.9886 24.6541 23.007 24.664 23.0274C24.674 23.0479 24.6797 23.07 24.6809 23.0927C24.6821 23.1153 24.6788 23.1379 24.6711 23.1593C24.5767 23.4154 24.4042 23.6367 24.1771 23.7931C23.9501 23.9495 23.6795 24.0334 23.4022 24.0334C23.1249 24.0334 22.8543 23.9495 22.6273 23.7931C22.4003 23.6367 22.2278 23.4154 22.1333 23.1593Z" fill="#B1645A"/>
<path d="M10.0145 25.6169C10.0145 25.7602 9.84366 25.8758 9.63323 25.8758C9.4228 25.8758 9.2522 25.76 9.2522 25.6169C9.2522 25.4737 9.42254 25.3574 9.63323 25.3574C9.84393 25.3574 10.0145 25.4732 10.0145 25.6169ZM11.0701 26.1922C11.0701 26.3356 10.8992 26.4517 10.6888 26.4517C10.4784 26.4517 10.3078 26.3358 10.3078 26.1922C10.3078 26.0486 10.4781 25.9332 10.6888 25.9332C10.8995 25.9332 11.0701 26.0491 11.0701 26.1922ZM11.7153 26.9387C11.7153 27.0816 11.5449 27.1977 11.334 27.1977C11.123 27.1977 10.9532 27.0819 10.9532 26.9387C10.9532 26.7956 11.1236 26.6792 11.334 26.6792C11.5444 26.6792 11.7153 26.7951 11.7153 26.9387ZM12.301 27.8029C12.301 27.9463 12.1307 28.0624 11.9202 28.0624C11.7098 28.0624 11.5389 27.9465 11.5389 27.8029C11.5389 27.6593 11.7093 27.5434 11.9202 27.5434C12.1312 27.5434 12.301 27.6593 12.301 27.8029ZM12.9462 28.612C12.9462 28.7549 12.7758 28.871 12.5651 28.871C12.3544 28.871 12.1838 28.7551 12.1838 28.612C12.1838 28.4689 12.3547 28.3525 12.5651 28.3525C12.7756 28.3525 12.9462 28.4683 12.9462 28.612ZM13.8259 29.3026C13.8259 29.446 13.6556 29.5621 13.4446 29.5621C13.2337 29.5621 13.0638 29.4463 13.0638 29.3026C13.0638 29.159 13.2342 29.0437 13.4446 29.0437C13.655 29.0437 13.8259 29.1595 13.8259 29.3026Z" fill="#C5E6DA"/>
<path d="M15.057 29.7637C15.057 29.9066 14.8867 30.0227 14.676 30.0227C14.4653 30.0227 14.2947 29.9069 14.2947 29.7637C14.2947 29.6206 14.465 29.5043 14.676 29.5043C14.8869 29.5043 15.057 29.6201 15.057 29.7637Z" fill="#C5E6DA"/>
<path d="M16.2823 29.7637C16.2823 29.9066 16.112 30.0227 15.9013 30.0227C15.6906 30.0227 15.52 29.9069 15.52 29.7637C15.52 29.6206 15.6904 29.5043 15.9013 29.5043C16.1123 29.5043 16.2823 29.6201 16.2823 29.7637Z" fill="#C5E6DA"/>
<path d="M17.5262 29.5631C17.5262 29.7065 17.3559 29.8226 17.1452 29.8226C16.9345 29.8226 16.7639 29.7068 16.7639 29.5631C16.7639 29.4195 16.9343 29.3037 17.1452 29.3037C17.3562 29.3037 17.5262 29.4195 17.5262 29.5631Z" fill="#C5E6DA"/>
</g>
</g>
<defs>
<clipPath id="clip0_509_157">
<rect width="47" height="46.2985" fill="white" transform="translate(0 0.850708)"/>
</clipPath>
</defs>
</svg>
