<svg width="21" height="20" viewBox="0 0 21 20" fill="none" xmlns="http://www.w3.org/2000/svg">
<path fill-rule="evenodd" clip-rule="evenodd" d="M10.4992 0C4.70169 0 0 4.59044 0 10.2534C0 14.7828 3.00834 18.626 7.1808 19.9824C7.70614 20.0763 7.89759 19.7596 7.89759 19.4877C7.89759 19.2441 7.88846 18.5996 7.88298 17.7442C4.96231 18.3635 4.34608 16.3696 4.34608 16.3696C3.86844 15.185 3.18 14.8696 3.18 14.8696C2.22664 14.2339 3.25218 14.2465 3.25218 14.2465C4.30609 14.3189 4.86044 15.3033 4.86044 15.3033C5.79704 16.8699 7.31828 16.4174 7.91647 16.1549C8.01185 15.4928 8.28324 15.0408 8.58298 14.7846C6.25149 14.5253 3.80008 13.646 3.80008 9.71713C3.80008 8.59738 4.20941 7.68281 4.88107 6.9659C4.77272 6.70656 4.41245 5.66421 4.98431 4.2524C4.98431 4.2524 5.86546 3.97674 7.87145 5.30295C8.70878 5.07572 9.60734 4.96242 10.5001 4.95801C11.3922 4.96158 12.2901 5.07577 13.1288 5.30295C15.1334 3.97674 16.0133 4.2524 16.0133 4.2524C16.5864 5.66421 16.226 6.70656 16.1184 6.9659C16.7913 7.68281 17.1974 8.59738 17.1974 9.71713C17.1974 13.6561 14.7422 14.5228 12.4036 14.7764C12.78 15.093 13.1159 15.7187 13.1159 16.6755C13.1159 18.0457 13.1031 19.1516 13.1031 19.4877C13.1031 19.7621 13.2926 20.0813 13.825 19.9812C17.9943 18.6223 21 14.7821 21 10.2534C21 4.59044 16.2986 0 10.4992 0Z" fill="white"/>
</svg>
