<svg width="19" height="16" viewBox="0 0 19 16" fill="none" xmlns="http://www.w3.org/2000/svg">
<path d="M17.7016 0.0648643L0.494715 6.7234C0.484478 6.72734 0.474554 6.73206 0.465028 6.7375C0.325496 6.81655 -0.648254 7.41215 0.724793 7.94615L0.738895 7.95135L4.83614 9.27504C4.8674 9.2852 4.9005 9.2884 4.93313 9.28442C4.96575 9.28045 4.99712 9.26939 5.02503 9.25203L15.1874 2.91152C15.2123 2.89597 15.2401 2.88551 15.2691 2.88072C15.4105 2.85735 15.8175 2.81356 15.56 3.14049C15.2687 3.51158 8.32739 9.73186 7.557 10.4217C7.51258 10.4616 7.48509 10.517 7.48018 10.5765L7.14397 14.5843C7.14393 14.6251 7.1534 14.6654 7.17163 14.7019C7.18986 14.7384 7.21635 14.7702 7.24899 14.7947C7.29532 14.8239 7.34979 14.8374 7.40438 14.8332C7.45897 14.8291 7.51079 14.8075 7.55218 14.7717L9.98655 12.596C10.025 12.5616 10.0741 12.5414 10.1256 12.5388C10.1771 12.5362 10.2279 12.5512 10.2697 12.5815L14.5169 15.6653L14.5306 15.6746C14.6334 15.738 15.7437 16.3841 16.0643 14.9413L18.996 1.00113C19 0.956974 19.0398 0.471583 18.6928 0.184728C18.3284 -0.115116 17.8125 0.03629 17.735 0.0526182C17.7235 0.0558029 17.7124 0.0598981 17.7016 0.0648643Z" fill="white"/>
</svg>
