<svg width="111" height="111" viewBox="0 0 111 111" fill="none" xmlns="http://www.w3.org/2000/svg">
<path d="M55.5001 110.575C25.1279 110.575 0.425781 85.8724 0.425781 55.5001C0.425781 25.1279 25.1279 0.425781 55.5001 0.425781C85.8724 0.425781 110.575 25.1279 110.575 55.5001C110.575 57.7803 108.72 59.6349 106.44 59.6349C104.16 59.6349 102.305 57.7803 102.305 55.5001C102.305 29.7035 81.312 8.7105 55.5153 8.7105C29.7187 8.7105 8.7105 29.7035 8.7105 55.5001C8.7105 81.2968 29.7035 102.29 55.5001 102.29C57.7803 102.29 59.6349 104.144 59.6349 106.425C59.6349 108.705 57.7803 110.559 55.5001 110.559V110.575Z" fill="url(#paint0_linear_408_1387)"/>
<defs>
<linearGradient id="paint0_linear_408_1387" x1="0.425781" y1="12.9427" x2="114.629" y2="17.9415" gradientUnits="userSpaceOnUse">
<stop stop-color="#FF9898"/>
<stop offset="1" stop-color="#8054FF"/>
</linearGradient>
</defs>
</svg>
